<svg width="31" height="31" viewBox="0 0 31 31" fill="none" xmlns="http://www.w3.org/2000/svg">
<g clip-path="url(#clip0_39_470)">
<path d="M29.6988 13.916C29.6489 11.5002 28.9805 9.13246 27.7623 7.05256C28.7535 2.31244 23.7396 -1.54209 19.4215 0.613348C15.3509 -0.599855 10.6182 0.0452699 6.88497 2.93432C6.41137 3.29735 6.9836 4.00263 7.43758 3.6548C8.58409 2.77605 9.85425 2.09479 11.2127 1.62979C12.6291 1.14499 14.1124 0.906224 15.6225 0.919055C16.5666 0.927286 17.5048 1.03538 18.4193 1.24068C18.0625 1.51746 17.7385 1.83436 17.4539 2.18455C10.3899 0.978187 3.66557 6.4386 3.34328 13.5333C2.97085 13.5152 2.58705 13.5412 2.22697 13.6393C2.35237 10.6303 3.49991 7.71414 5.42058 5.56312C5.81159 5.12529 5.13401 4.52078 4.74306 4.95861C2.58487 7.37557 1.3373 10.6881 1.30781 14.0674C0.518281 14.6129 0 15.5239 0 16.5537V20.9401C0 22.8787 1.65136 24.0054 3.44052 23.9604C4.07359 25.789 6.74238 25.3918 6.78779 23.4297V13.9083C6.80807 12.6958 5.48876 11.8341 4.38886 12.3352C5.31287 6.53871 10.9053 2.23842 16.886 3.02081C15.6023 5.2116 16.0332 8.28888 17.8922 10.0548V11.2874C17.9528 11.6524 18.1631 11.7918 18.523 11.7055L19.6284 11.2387C21.7134 12.2151 24.4298 11.7165 26.0223 10.1557C26.2963 10.8635 26.4965 11.5934 26.6214 12.3396C25.5206 11.8306 24.192 12.6896 24.2123 13.9082V23.4296C24.1993 24.7207 25.6401 25.5664 26.7577 24.9304C26.7554 25.3315 26.748 25.7325 26.7323 26.1295C26.6242 27.4301 25.621 28.5221 24.3417 28.7329C23.9351 28.7729 23.4715 28.7884 22.9046 28.7802C22.7013 28.0344 22.0178 27.4845 21.2082 27.4845H18.7969C16.4654 27.5807 16.4649 30.9025 18.7969 30.9989H21.2081C22.0231 30.9989 22.7103 30.4416 22.9085 29.6882C23.4209 29.6951 23.9634 29.7131 24.4721 29.6315C26.169 29.3601 27.5244 27.9141 27.6621 26.1932C27.6625 26.1872 27.6618 26.1812 27.6621 26.1752C27.6937 25.3853 27.6698 24.5875 27.6621 23.8046C29.4172 23.8896 31 22.6109 31 20.7842V16.3979C31 15.3709 30.4846 14.462 29.6988 13.916ZM0.908203 20.9401V16.5537C0.908203 15.2304 2.07331 14.3694 3.32445 14.4413V23.0526C2.07264 23.1219 0.908203 22.2674 0.908203 20.9401ZM5.07213 13.1011C5.5174 13.1011 5.87959 13.4633 5.87959 13.9083V23.4297C5.83508 24.5008 4.30876 24.4999 4.26468 23.4297V13.9083C4.26468 13.4632 4.62693 13.1011 5.07213 13.1011ZM21.2081 30.0911H18.7969C18.3284 30.0911 17.9472 29.7101 17.9472 29.2417C17.9472 28.7733 18.3283 28.3923 18.7969 28.3923H21.2081C22.3347 28.4387 22.3356 30.0443 21.2081 30.0911ZM28.7738 13.4837C28.4133 13.3853 28.0291 13.3595 27.6563 13.3776C27.5632 12.0033 27.2411 10.6698 26.6967 9.40621C26.9662 9.04973 27.196 8.66171 27.3794 8.24869C28.1977 9.87503 28.6738 11.6596 28.7738 13.4837ZM22.0115 10.8349C21.2489 10.8349 20.5173 10.6664 19.8369 10.3342C19.7122 10.2764 19.5869 10.273 19.4608 10.3239L18.8004 10.6028V9.86039C18.8004 9.73341 18.7472 9.61224 18.6538 9.52629C15.3473 6.49307 17.5189 0.916089 22.0116 0.918571C28.5928 1.19075 28.5913 10.5635 22.0115 10.8349ZM30.0918 20.7842C30.0918 22.1219 28.9103 22.9728 27.6515 22.8967C27.6458 22.4089 27.6426 21.9211 27.6435 21.4332C27.6435 20.8463 26.7353 20.8463 26.7353 21.4332V23.4296C26.7353 23.8747 26.3731 24.2368 25.9279 24.2368C25.4827 24.2368 25.1204 23.8747 25.1204 23.4296V13.9083C25.1635 12.8401 26.69 12.8352 26.7353 13.9083V19.0168C26.7353 19.6037 27.6435 19.6037 27.6435 19.0168V14.2854C28.9054 14.214 30.0918 15.0487 30.0918 16.3979V20.7842Z" fill="#C0C0C0"/>
<path d="M19.6312 25.5717C19.9912 25.658 20.2014 25.5187 20.2621 25.1536V23.6715C24.6124 19.4433 21.577 11.9713 15.4999 11.9791C11.7401 11.979 8.68113 15.0363 8.68113 18.7941C8.62349 23.6697 13.8829 27.0643 18.3 25.0096L19.6312 25.5717ZM18.091 24.1048C14.251 26.0378 9.5366 23.0965 9.5894 18.7941C9.58934 15.5369 12.2409 12.8869 15.5 12.8869C20.8531 12.8844 23.4398 19.529 19.5005 23.1422C19.407 23.2282 19.3539 23.3494 19.3539 23.4763V24.469L18.467 24.0945C18.3461 24.0434 18.2089 24.0472 18.091 24.1048Z" fill="#C0C0C0"/>
<path d="M14.2851 16.702H16.7143C17.3014 16.702 17.3014 15.7938 16.7143 15.7938H14.2851C13.6979 15.7938 13.6979 16.702 14.2851 16.702Z" fill="#C0C0C0"/>
<path d="M16.7143 20.8862H14.2851C13.6979 20.8862 13.6979 21.7944 14.2851 21.7944H16.7143C17.3014 21.7944 17.3014 20.8862 16.7143 20.8862Z" fill="#C0C0C0"/>
<path d="M18.0147 18.3402H12.9862C12.3991 18.3402 12.3991 19.2484 12.9862 19.2484H18.0147C18.6018 19.2484 18.6018 18.3402 18.0147 18.3402Z" fill="#C0C0C0"/>
</g>
<defs>
<clipPath id="clip0_39_470">
<rect width="31" height="31" fill="white"/>
</clipPath>
</defs>
</svg>
