<svg width="31" height="31" viewBox="0 0 31 31" fill="none" xmlns="http://www.w3.org/2000/svg">
<g clip-path="url(#clip0_39_478)">
<path d="M29.8413 4.17355C30.2343 7.38884 30.6946 11.5505 29.3731 15.9689C27.9694 20.6623 24.5213 25.7329 16.5682 30.1701C10.5164 27.6715 6.23688 24.1661 3.67148 19.7719C1.17461 15.495 0.258581 10.3026 0.998964 4.22774C3.75012 4.80481 9.22713 4.64888 15.4637 0.859543C17.0507 1.65048 19.4882 2.67079 22.1149 3.39453C24.6436 4.09126 27.4399 4.53966 29.8413 4.17355Z" stroke="#C0C0C0" stroke-width="1.5"/>
<path d="M19.6215 15.7491C19.7915 16.3045 19.8765 16.8428 19.8765 17.3641C19.8765 17.9421 19.7858 18.4635 19.6045 18.9281C19.3438 19.6535 18.8848 20.2315 18.2275 20.6621C17.5702 21.0815 16.7995 21.2911 15.9155 21.2911C15.0542 21.2911 14.2948 21.0871 13.6375 20.6791C12.9915 20.2598 12.5325 19.6931 12.2605 18.9791C12.1472 18.6845 12.0622 18.3728 12.0055 18.0441V18.0101C12.0055 17.8855 12.0735 17.8231 12.2095 17.8231H14.2665C14.3798 17.8231 14.4535 17.8855 14.4875 18.0101C14.4988 18.0781 14.5158 18.1348 14.5385 18.1801C14.5612 18.2255 14.5782 18.2651 14.5895 18.2991C14.7028 18.5938 14.8728 18.8205 15.0995 18.9791C15.3262 19.1378 15.5925 19.2171 15.8985 19.2171C16.2158 19.2171 16.4935 19.1321 16.7315 18.9621C16.9695 18.7921 17.1452 18.5541 17.2585 18.2481C17.3718 18.0215 17.4285 17.7268 17.4285 17.3641C17.4285 17.0355 17.3775 16.7408 17.2755 16.4801C17.1962 16.1855 17.0375 15.9588 16.7995 15.8001C16.5615 15.6415 16.2838 15.5621 15.9665 15.5621C15.6492 15.5621 15.3545 15.6358 15.0825 15.7831C14.8105 15.9305 14.6292 16.1231 14.5385 16.3611C14.5045 16.4745 14.4308 16.5311 14.3175 16.5311H12.2265C12.1698 16.5311 12.1188 16.5141 12.0735 16.4801C12.0395 16.4348 12.0225 16.3838 12.0225 16.3271V9.47612C12.0225 9.41945 12.0395 9.37412 12.0735 9.34012C12.1188 9.29479 12.1698 9.27212 12.2265 9.27212H19.2475C19.3042 9.27212 19.3495 9.29479 19.3835 9.34012C19.4288 9.37412 19.4515 9.41945 19.4515 9.47612V11.1251C19.4515 11.1818 19.4288 11.2328 19.3835 11.2781C19.3495 11.3121 19.3042 11.3291 19.2475 11.3291H14.5045C14.4478 11.3291 14.4195 11.3575 14.4195 11.4141L14.4025 13.9301C14.4025 14.0095 14.4365 14.0265 14.5045 13.9811C15.0145 13.6525 15.6038 13.4881 16.2725 13.4881C17.0658 13.4881 17.7572 13.6921 18.3465 14.1001C18.9472 14.4968 19.3722 15.0465 19.6215 15.7491Z" fill="#C0C0C0"/>
</g>
<defs>
<clipPath id="clip0_39_478">
<rect width="31" height="31" fill="white"/>
</clipPath>
</defs>
</svg>
