<svg width="243" height="84" viewBox="0 0 243 84" fill="none" xmlns="http://www.w3.org/2000/svg">
<rect width="243" height="84" rx="13" fill="url(#paint0_radial_42_1088)"/>
<path d="M24.2923 40.0864C24.2923 39.4526 24.4803 39.0015 24.8563 38.7329C25.2323 38.4536 25.5975 38.314 25.952 38.314H27.8695C28.8363 38.314 29.5721 38.8403 30.077 39.8931C30.5819 40.9458 31.7152 41.4722 33.4769 41.4722L39.1165 41.585C41.0072 41.585 41.9525 40.9673 41.9525 39.7319C41.9525 38.7974 40.7977 38.0615 38.4881 37.5244C37.4569 37.2773 36.3182 37.0356 35.0721 36.7993C33.826 36.5522 32.5853 36.2461 31.3499 35.8809C30.1253 35.5156 28.9974 35.0859 27.9662 34.5918C26.9349 34.0977 26.097 33.4209 25.4525 32.5615C24.8187 31.6914 24.5018 30.6709 24.5018 29.5C24.5018 27.3408 25.2699 25.6812 26.806 24.521C28.3421 23.3501 30.9847 22.7646 34.7337 22.7646L38.8265 22.8613C41.0287 22.8613 43.0106 23.4307 44.7723 24.5693C46.5448 25.6973 47.431 27.1099 47.431 28.8071C47.431 29.4409 47.243 29.8975 46.867 30.1768C46.4911 30.4561 46.1312 30.5957 45.7874 30.5957H43.87C42.9032 30.5957 42.1673 30.0693 41.6624 29.0166C41.1576 27.9531 40.0243 27.4214 38.2625 27.4214L33.4124 27.3247C31.5218 27.3247 30.5765 27.9424 30.5765 29.1777C30.5765 29.8545 31.1727 30.4077 32.3651 30.8374C33.5682 31.2671 35.0184 31.6484 36.7157 31.9814C38.4237 32.3037 40.1371 32.6958 41.8558 33.1577C43.5746 33.6196 45.0301 34.3823 46.2225 35.4458C47.4256 36.4985 48.0272 37.8145 48.0272 39.3936C48.0272 41.5527 47.2538 43.2178 45.7069 44.3887C44.1707 45.5488 41.5335 46.1289 37.7953 46.1289L32.9129 46.0322C30.7108 46.0322 28.7235 45.4683 26.951 44.3403C25.1786 43.2017 24.2923 41.7837 24.2923 40.0864ZM51.9981 36.8638V24.4243C51.9981 24.0054 52.1432 23.6455 52.4332 23.3447C52.734 23.0439 53.1046 22.8936 53.545 22.8936H56.5582C56.9664 22.8936 57.3209 23.0439 57.6217 23.3447C57.9225 23.6455 58.0729 24.0054 58.0729 24.4243V36.896C58.0729 38.4751 58.4166 39.6514 59.1041 40.4248C59.8023 41.1982 60.8766 41.585 62.3268 41.585H64.9049C66.3551 41.585 67.4239 41.1982 68.1114 40.4248C68.8097 39.6514 69.1588 38.4751 69.1588 36.896V24.4243C69.1588 24.0054 69.3038 23.6455 69.5939 23.3447C69.8946 23.0439 70.2545 22.8936 70.6734 22.8936H73.6705C74.1109 22.8936 74.4815 23.0439 74.7823 23.3447C75.0831 23.6455 75.2335 24.0054 75.2335 24.4243V36.8638C75.2335 39.8071 74.3688 42.0898 72.6393 43.7119C70.9098 45.3232 68.3854 46.1289 65.066 46.1289H62.1656C58.8356 46.1289 56.3058 45.3232 54.5763 43.7119C52.8575 42.0898 51.9981 39.8071 51.9981 36.8638ZM80.5096 24.4243C80.5096 24.0054 80.66 23.6455 80.9608 23.3447C81.2616 23.0439 81.6214 22.8936 82.0404 22.8936H95.1405C98.3524 22.8936 100.721 23.8174 102.246 25.665C103.095 26.6855 103.519 27.9907 103.519 29.5806C103.519 31.1597 102.794 32.54 101.344 33.7217C103.407 34.8281 104.438 36.5469 104.438 38.8779C104.438 41.209 103.611 42.9814 101.956 44.1953C100.313 45.3984 98.2933 46 95.8978 46H82.0404C81.6214 46 81.2616 45.855 80.9608 45.5649C80.66 45.2642 80.5096 44.9043 80.5096 44.4854V24.4243ZM86.5843 41.6494H95.8011C96.6283 41.6494 97.2621 41.4023 97.7025 40.9082C98.1429 40.4141 98.3631 39.7373 98.3631 38.8779C98.3631 38.0186 98.1429 37.3418 97.7025 36.8477C97.2621 36.3535 96.6283 36.1064 95.8011 36.1064H86.5843V41.6494ZM86.5843 31.8687H95.2049C95.8817 31.8687 96.4242 31.6699 96.8324 31.2725C97.2406 30.8643 97.4447 30.3003 97.4447 29.5806C97.4447 28.8501 97.2406 28.2808 96.8324 27.8726C96.4242 27.4644 95.8817 27.2603 95.2049 27.2603H86.5843V31.8687ZM107.088 36.8315V34.9141C107.088 34.624 107.179 34.3877 107.361 34.2051C107.555 34.0117 107.791 33.915 108.07 33.915H120.22C120.51 33.915 120.746 34.0117 120.929 34.2051C121.122 34.3877 121.219 34.624 121.219 34.9141V36.8315C121.219 37.1216 121.122 37.3579 120.929 37.5405C120.746 37.7231 120.51 37.8145 120.22 37.8145H108.07C107.78 37.8145 107.544 37.7231 107.361 37.5405C107.179 37.3579 107.088 37.1216 107.088 36.8315ZM123.675 25.939V24.4243C123.675 23.9839 123.82 23.6187 124.11 23.3286C124.411 23.0386 124.771 22.8936 125.19 22.8936H144.01C144.429 22.8936 144.784 23.0386 145.074 23.3286C145.374 23.6187 145.525 23.9839 145.525 24.4243V26.229C145.525 26.6694 145.428 27.0938 145.235 27.502C145.052 27.9102 144.88 28.2002 144.719 28.3721L144.01 29.0972L131.329 41.4399H144.171C144.612 41.4399 144.972 41.585 145.251 41.875C145.541 42.165 145.686 42.5303 145.686 42.9707V44.4854C145.686 44.9258 145.541 45.291 145.251 45.5811C144.972 45.8604 144.612 46 144.171 46H125.464C125.045 46 124.685 45.8604 124.384 45.5811C124.094 45.291 123.949 44.9258 123.949 44.4854V42.6968C123.949 41.6655 124.454 40.645 125.464 39.6353L137.742 27.4536H125.19C124.771 27.4536 124.411 27.314 124.11 27.0347C123.82 26.7446 123.675 26.3794 123.675 25.939ZM149.802 44.4531V24.3921C149.802 23.9731 149.952 23.6187 150.253 23.3286C150.554 23.0386 150.914 22.8936 151.333 22.8936H169.911C170.33 22.8936 170.685 23.0439 170.975 23.3447C171.276 23.6455 171.426 24.0054 171.426 24.4243V25.939C171.426 26.3579 171.276 26.7178 170.975 27.0186C170.685 27.3086 170.33 27.4536 169.911 27.4536H155.877V32.1426H167.962C168.381 32.1426 168.735 32.293 169.025 32.5938C169.326 32.8838 169.476 33.2383 169.476 33.6572V35.1719C169.476 35.5908 169.326 35.9507 169.025 36.2515C168.735 36.5415 168.381 36.6865 167.962 36.6865H155.877V41.4399H169.879C170.287 41.4399 170.636 41.585 170.926 41.875C171.216 42.165 171.361 42.5195 171.361 42.9385V44.4854C171.361 44.9043 171.211 45.2642 170.91 45.5649C170.61 45.855 170.25 46 169.831 46H151.333C150.914 46 150.554 45.855 150.253 45.5649C149.952 45.2642 149.802 44.8936 149.802 44.4531ZM199.373 45.3071C199.373 45.769 199.1 46 198.552 46H194.684C194.276 46 193.825 45.855 193.331 45.5649C192.848 45.2642 192.477 44.9043 192.219 44.4854L189.48 40.1992C188.352 38.4375 186.988 37.5566 185.387 37.5566H181.455V44.4854C181.455 44.9043 181.305 45.2642 181.004 45.5649C180.714 45.855 180.36 46 179.941 46H176.912C176.493 46 176.133 45.855 175.832 45.5649C175.531 45.2642 175.381 44.9043 175.381 44.4854V24.4243C175.381 24.0054 175.526 23.6455 175.816 23.3447C176.106 23.0439 176.46 22.8936 176.879 22.8936H190.173C192.633 22.8936 194.647 23.5542 196.215 24.8755C197.794 26.1968 198.584 27.98 198.584 30.2251C198.584 33.3511 196.559 35.3115 192.509 36.1064C193.154 36.3428 193.75 36.751 194.298 37.3311C194.846 37.9004 195.474 38.7329 196.183 39.8286L199.116 44.4854C199.288 44.7861 199.373 45.0601 199.373 45.3071ZM181.455 32.9966H188.32C189.426 32.9966 190.398 32.7764 191.236 32.3359C192.085 31.8955 192.509 31.1919 192.509 30.2251C192.509 29.2583 192.085 28.5547 191.236 28.1143C190.398 27.6738 189.426 27.4536 188.32 27.4536H181.455V32.9966ZM224.372 43.6152C222.181 45.5381 218.958 46.4995 214.704 46.4995C210.461 46.4995 207.238 45.5381 205.036 43.6152C202.834 41.6816 201.733 38.6255 201.733 34.4468C201.733 30.2681 202.834 27.2173 205.036 25.2944C207.238 23.3716 210.461 22.4102 214.704 22.4102C218.958 22.4102 222.181 23.3716 224.372 25.2944C226.574 27.2173 227.675 30.2681 227.675 34.4468C227.675 38.6255 226.574 41.6816 224.372 43.6152ZM219.973 28.6943C218.888 27.4053 217.132 26.7607 214.704 26.7607C212.287 26.7607 210.531 27.4053 209.435 28.6943C208.35 29.9834 207.808 31.9062 207.808 34.4629C207.808 37.0088 208.35 38.9263 209.435 40.2153C210.531 41.4937 212.287 42.1328 214.704 42.1328C217.132 42.1328 218.888 41.4937 219.973 40.2153C221.058 38.9263 221.601 37.0088 221.601 34.4629C221.601 31.9062 221.058 29.9834 219.973 28.6943Z" fill="#353A3F"/>
<path d="M43.0332 60.195C42.9832 60.275 42.9299 60.335 42.8732 60.375C42.8199 60.415 42.7499 60.435 42.6632 60.435C42.5866 60.435 42.5032 60.4117 42.4132 60.365C42.3266 60.315 42.2266 60.26 42.1132 60.2C42.0032 60.14 41.8766 60.0867 41.7332 60.04C41.5899 59.99 41.4266 59.965 41.2432 59.965C40.9266 59.965 40.6899 60.0333 40.5332 60.17C40.3799 60.3033 40.3032 60.485 40.3032 60.715C40.3032 60.8617 40.3499 60.9833 40.4432 61.08C40.5366 61.1767 40.6582 61.26 40.8082 61.33C40.9616 61.4 41.1349 61.465 41.3282 61.525C41.5249 61.5817 41.7249 61.6467 41.9282 61.72C42.1316 61.79 42.3299 61.8733 42.5232 61.97C42.7199 62.0667 42.8932 62.19 43.0432 62.34C43.1966 62.49 43.3199 62.6733 43.4132 62.89C43.5066 63.1033 43.5532 63.3617 43.5532 63.665C43.5532 64.0017 43.4949 64.3167 43.3782 64.61C43.2616 64.9033 43.0916 65.16 42.8682 65.38C42.6482 65.5967 42.3749 65.7683 42.0482 65.895C41.7249 66.0183 41.3566 66.08 40.9432 66.08C40.7166 66.08 40.4849 66.0567 40.2482 66.01C40.0149 65.9633 39.7882 65.8983 39.5682 65.815C39.3482 65.7283 39.1416 65.6267 38.9482 65.51C38.7549 65.3933 38.5866 65.2633 38.4432 65.12L38.9432 64.33C38.9799 64.27 39.0316 64.2217 39.0982 64.185C39.1649 64.1483 39.2366 64.13 39.3132 64.13C39.4132 64.13 39.5132 64.1617 39.6132 64.225C39.7166 64.2883 39.8316 64.3583 39.9582 64.435C40.0882 64.5117 40.2366 64.5817 40.4032 64.645C40.5699 64.7083 40.7666 64.74 40.9932 64.74C41.2999 64.74 41.5382 64.6733 41.7082 64.54C41.8782 64.4033 41.9632 64.1883 41.9632 63.895C41.9632 63.725 41.9166 63.5867 41.8232 63.48C41.7299 63.3733 41.6066 63.285 41.4532 63.215C41.3032 63.145 41.1316 63.0833 40.9382 63.03C40.7449 62.9767 40.5466 62.9183 40.3432 62.855C40.1399 62.7883 39.9416 62.7083 39.7482 62.615C39.5549 62.5183 39.3816 62.3933 39.2282 62.24C39.0782 62.0833 38.9566 61.89 38.8632 61.66C38.7699 61.4267 38.7232 61.14 38.7232 60.8C38.7232 60.5267 38.7782 60.26 38.8882 60C38.9982 59.74 39.1599 59.5083 39.3732 59.305C39.5866 59.1017 39.8482 58.94 40.1582 58.82C40.4682 58.6967 40.8232 58.635 41.2232 58.635C41.4466 58.635 41.6632 58.6533 41.8732 58.69C42.0866 58.7233 42.2882 58.775 42.4782 58.845C42.6682 58.9117 42.8449 58.9933 43.0082 59.09C43.1749 59.1833 43.3232 59.29 43.4532 59.41L43.0332 60.195ZM53.5232 64.665C53.7498 64.665 53.9515 64.6283 54.1282 64.555C54.3082 64.4783 54.4598 64.37 54.5832 64.23C54.7065 64.09 54.7998 63.92 54.8632 63.72C54.9298 63.5167 54.9632 63.2867 54.9632 63.03V58.715H56.6532V63.03C56.6532 63.4767 56.5798 63.8867 56.4332 64.26C56.2898 64.6333 56.0832 64.955 55.8132 65.225C55.5432 65.495 55.2148 65.705 54.8282 65.855C54.4415 66.005 54.0065 66.08 53.5232 66.08C53.0365 66.08 52.5998 66.005 52.2132 65.855C51.8265 65.705 51.4982 65.495 51.2282 65.225C50.9582 64.955 50.7515 64.6333 50.6082 64.26C50.4648 63.8867 50.3932 63.4767 50.3932 63.03V58.715H52.0832V63.025C52.0832 63.2817 52.1148 63.5117 52.1782 63.715C52.2448 63.915 52.3398 64.0867 52.4632 64.23C52.5865 64.37 52.7365 64.4783 52.9132 64.555C53.0932 64.6283 53.2965 64.665 53.5232 64.665ZM63.849 66V58.715H66.529C67.0324 58.715 67.4607 58.7617 67.814 58.855C68.1674 58.9483 68.4557 59.08 68.679 59.25C68.9024 59.42 69.064 59.6267 69.164 59.87C69.2674 60.1133 69.319 60.385 69.319 60.685C69.319 60.8483 69.2957 61.0067 69.249 61.16C69.2024 61.31 69.129 61.4517 69.029 61.585C68.929 61.7183 68.8007 61.84 68.644 61.95C68.4874 62.0567 68.299 62.15 68.079 62.23C68.559 62.3467 68.914 62.5367 69.144 62.8C69.374 63.06 69.489 63.395 69.489 63.805C69.489 64.115 69.429 64.4033 69.309 64.67C69.189 64.9367 69.0124 65.17 68.779 65.37C68.549 65.5667 68.264 65.7217 67.924 65.835C67.584 65.945 67.1957 66 66.759 66H63.849ZM65.539 62.91V64.725H66.729C66.9524 64.725 67.134 64.6967 67.274 64.64C67.4174 64.5833 67.529 64.51 67.609 64.42C67.689 64.33 67.744 64.2283 67.774 64.115C67.804 64.0017 67.819 63.8867 67.819 63.77C67.819 63.6367 67.8007 63.5167 67.764 63.41C67.7307 63.3033 67.6707 63.2133 67.584 63.14C67.5007 63.0667 67.389 63.01 67.249 62.97C67.109 62.93 66.9324 62.91 66.719 62.91H65.539ZM65.539 61.78H66.419C66.6057 61.78 66.774 61.7667 66.924 61.74C67.074 61.7133 67.2007 61.6667 67.304 61.6C67.4107 61.5333 67.4907 61.4417 67.544 61.325C67.6007 61.2083 67.629 61.0617 67.629 60.885C67.629 60.7117 67.6074 60.5683 67.564 60.455C67.5207 60.3383 67.454 60.245 67.364 60.175C67.274 60.105 67.159 60.055 67.019 60.025C66.8824 59.995 66.719 59.98 66.529 59.98H65.539V61.78ZM81.8415 58.715V59.325C81.8415 59.4117 81.8265 59.4967 81.7965 59.58C81.7699 59.6633 81.7315 59.7417 81.6815 59.815L78.2615 64.7H81.7315V66H76.1115V65.35C76.1115 65.2733 76.1249 65.1983 76.1515 65.125C76.1782 65.0483 76.2149 64.9783 76.2615 64.915L79.6915 60.015H76.3915V58.715H81.8415ZM93.405 58.715V60.015H90.415V61.715H92.705V62.965H90.415V64.7H93.405V66H88.715V58.715H93.405ZM102.159 63.305V66H100.469V58.715H102.839C103.366 58.715 103.814 58.77 104.184 58.88C104.558 58.9867 104.861 59.1367 105.094 59.33C105.331 59.5233 105.503 59.7517 105.609 60.015C105.716 60.2783 105.769 60.565 105.769 60.875C105.769 61.1117 105.738 61.335 105.674 61.545C105.611 61.755 105.516 61.95 105.389 62.13C105.266 62.3067 105.113 62.465 104.929 62.605C104.749 62.745 104.541 62.86 104.304 62.95C104.418 63.0067 104.523 63.0767 104.619 63.16C104.719 63.2433 104.806 63.345 104.879 63.465L106.429 66H104.899C104.616 66 104.413 65.8933 104.289 65.68L103.079 63.565C103.026 63.4717 102.963 63.405 102.889 63.365C102.819 63.325 102.719 63.305 102.589 63.305H102.159ZM102.159 62.14H102.839C103.069 62.14 103.264 62.1117 103.424 62.055C103.588 61.995 103.721 61.9133 103.824 61.81C103.928 61.7067 104.003 61.5867 104.049 61.45C104.096 61.31 104.119 61.16 104.119 61C104.119 60.68 104.014 60.43 103.804 60.25C103.598 60.07 103.276 59.98 102.839 59.98H102.159V62.14ZM120.156 62.355C120.156 62.8817 120.064 63.3717 119.881 63.825C119.701 64.2783 119.446 64.6733 119.116 65.01C118.786 65.3433 118.387 65.605 117.921 65.795C117.457 65.985 116.942 66.08 116.376 66.08C115.809 66.08 115.292 65.985 114.826 65.795C114.359 65.605 113.959 65.3433 113.626 65.01C113.296 64.6733 113.039 64.2783 112.856 63.825C112.676 63.3717 112.586 62.8817 112.586 62.355C112.586 61.8283 112.676 61.3383 112.856 60.885C113.039 60.4317 113.296 60.0383 113.626 59.705C113.959 59.3717 114.359 59.11 114.826 58.92C115.292 58.73 115.809 58.635 116.376 58.635C116.942 58.635 117.457 58.7317 117.921 58.925C118.387 59.115 118.786 59.3767 119.116 59.71C119.446 60.0433 119.701 60.4367 119.881 60.89C120.064 61.3433 120.156 61.8317 120.156 62.355ZM118.426 62.355C118.426 61.995 118.379 61.6717 118.286 61.385C118.192 61.095 118.057 60.85 117.881 60.65C117.707 60.45 117.494 60.2967 117.241 60.19C116.987 60.0833 116.699 60.03 116.376 60.03C116.049 60.03 115.757 60.0833 115.501 60.19C115.247 60.2967 115.032 60.45 114.856 60.65C114.682 60.85 114.549 61.095 114.456 61.385C114.362 61.6717 114.316 61.995 114.316 62.355C114.316 62.7183 114.362 63.045 114.456 63.335C114.549 63.6217 114.682 63.865 114.856 64.065C115.032 64.265 115.247 64.4183 115.501 64.525C115.757 64.6283 116.049 64.68 116.376 64.68C116.699 64.68 116.987 64.6283 117.241 64.525C117.494 64.4183 117.707 64.265 117.881 64.065C118.057 63.865 118.192 63.6217 118.286 63.335C118.379 63.045 118.426 62.7183 118.426 62.355ZM126.964 62.335H129.664V63.585H126.964V62.335ZM140.925 60.195C140.875 60.275 140.822 60.335 140.765 60.375C140.712 60.415 140.642 60.435 140.555 60.435C140.478 60.435 140.395 60.4117 140.305 60.365C140.218 60.315 140.118 60.26 140.005 60.2C139.895 60.14 139.768 60.0867 139.625 60.04C139.482 59.99 139.318 59.965 139.135 59.965C138.818 59.965 138.582 60.0333 138.425 60.17C138.272 60.3033 138.195 60.485 138.195 60.715C138.195 60.8617 138.242 60.9833 138.335 61.08C138.428 61.1767 138.55 61.26 138.7 61.33C138.853 61.4 139.027 61.465 139.22 61.525C139.417 61.5817 139.617 61.6467 139.82 61.72C140.023 61.79 140.222 61.8733 140.415 61.97C140.612 62.0667 140.785 62.19 140.935 62.34C141.088 62.49 141.212 62.6733 141.305 62.89C141.398 63.1033 141.445 63.3617 141.445 63.665C141.445 64.0017 141.387 64.3167 141.27 64.61C141.153 64.9033 140.983 65.16 140.76 65.38C140.54 65.5967 140.267 65.7683 139.94 65.895C139.617 66.0183 139.248 66.08 138.835 66.08C138.608 66.08 138.377 66.0567 138.14 66.01C137.907 65.9633 137.68 65.8983 137.46 65.815C137.24 65.7283 137.033 65.6267 136.84 65.51C136.647 65.3933 136.478 65.2633 136.335 65.12L136.835 64.33C136.872 64.27 136.923 64.2217 136.99 64.185C137.057 64.1483 137.128 64.13 137.205 64.13C137.305 64.13 137.405 64.1617 137.505 64.225C137.608 64.2883 137.723 64.3583 137.85 64.435C137.98 64.5117 138.128 64.5817 138.295 64.645C138.462 64.7083 138.658 64.74 138.885 64.74C139.192 64.74 139.43 64.6733 139.6 64.54C139.77 64.4033 139.855 64.1883 139.855 63.895C139.855 63.725 139.808 63.5867 139.715 63.48C139.622 63.3733 139.498 63.285 139.345 63.215C139.195 63.145 139.023 63.0833 138.83 63.03C138.637 62.9767 138.438 62.9183 138.235 62.855C138.032 62.7883 137.833 62.7083 137.64 62.615C137.447 62.5183 137.273 62.3933 137.12 62.24C136.97 62.0833 136.848 61.89 136.755 61.66C136.662 61.4267 136.615 61.14 136.615 60.8C136.615 60.5267 136.67 60.26 136.78 60C136.89 59.74 137.052 59.5083 137.265 59.305C137.478 59.1017 137.74 58.94 138.05 58.82C138.36 58.6967 138.715 58.635 139.115 58.635C139.338 58.635 139.555 58.6533 139.765 58.69C139.978 58.7233 140.18 58.775 140.37 58.845C140.56 58.9117 140.737 58.9933 140.9 59.09C141.067 59.1833 141.215 59.29 141.345 59.41L140.925 60.195ZM151.415 64.665C151.642 64.665 151.843 64.6283 152.02 64.555C152.2 64.4783 152.352 64.37 152.475 64.23C152.598 64.09 152.692 63.92 152.755 63.72C152.822 63.5167 152.855 63.2867 152.855 63.03V58.715H154.545V63.03C154.545 63.4767 154.472 63.8867 154.325 64.26C154.182 64.6333 153.975 64.955 153.705 65.225C153.435 65.495 153.107 65.705 152.72 65.855C152.333 66.005 151.898 66.08 151.415 66.08C150.928 66.08 150.492 66.005 150.105 65.855C149.718 65.705 149.39 65.495 149.12 65.225C148.85 64.955 148.643 64.6333 148.5 64.26C148.357 63.8867 148.285 63.4767 148.285 63.03V58.715H149.975V63.025C149.975 63.2817 150.007 63.5117 150.07 63.715C150.137 63.915 150.232 64.0867 150.355 64.23C150.478 64.37 150.628 64.4783 150.805 64.555C150.985 64.6283 151.188 64.665 151.415 64.665ZM163.431 63.565V66H161.741V58.715H164.311C164.824 58.715 165.264 58.7767 165.631 58.9C166.001 59.02 166.304 59.1867 166.541 59.4C166.781 59.6133 166.957 59.865 167.071 60.155C167.184 60.445 167.241 60.7583 167.241 61.095C167.241 61.4583 167.182 61.7917 167.066 62.095C166.949 62.3983 166.771 62.6583 166.531 62.875C166.291 63.0917 165.986 63.2617 165.616 63.385C165.249 63.505 164.814 63.565 164.311 63.565H163.431ZM163.431 62.29H164.311C164.751 62.29 165.067 62.185 165.261 61.975C165.454 61.765 165.551 61.4717 165.551 61.095C165.551 60.9283 165.526 60.7767 165.476 60.64C165.426 60.5033 165.349 60.3867 165.246 60.29C165.146 60.19 165.017 60.1133 164.861 60.06C164.707 60.0067 164.524 59.98 164.311 59.98H163.431V62.29ZM175.908 63.565V66H174.218V58.715H176.788C177.301 58.715 177.741 58.7767 178.108 58.9C178.478 59.02 178.781 59.1867 179.018 59.4C179.258 59.6133 179.434 59.865 179.548 60.155C179.661 60.445 179.718 60.7583 179.718 61.095C179.718 61.4583 179.659 61.7917 179.543 62.095C179.426 62.3983 179.248 62.6583 179.008 62.875C178.768 63.0917 178.463 63.2617 178.093 63.385C177.726 63.505 177.291 63.565 176.788 63.565H175.908ZM175.908 62.29H176.788C177.228 62.29 177.544 62.185 177.738 61.975C177.931 61.765 178.028 61.4717 178.028 61.095C178.028 60.9283 178.003 60.7767 177.953 60.64C177.903 60.5033 177.826 60.3867 177.723 60.29C177.623 60.19 177.494 60.1133 177.338 60.06C177.184 60.0067 177.001 59.98 176.788 59.98H175.908V62.29ZM193.885 62.355C193.885 62.8817 193.793 63.3717 193.61 63.825C193.43 64.2783 193.175 64.6733 192.845 65.01C192.515 65.3433 192.116 65.605 191.65 65.795C191.186 65.985 190.671 66.08 190.105 66.08C189.538 66.08 189.021 65.985 188.555 65.795C188.088 65.605 187.688 65.3433 187.355 65.01C187.025 64.6733 186.768 64.2783 186.585 63.825C186.405 63.3717 186.315 62.8817 186.315 62.355C186.315 61.8283 186.405 61.3383 186.585 60.885C186.768 60.4317 187.025 60.0383 187.355 59.705C187.688 59.3717 188.088 59.11 188.555 58.92C189.021 58.73 189.538 58.635 190.105 58.635C190.671 58.635 191.186 58.7317 191.65 58.925C192.116 59.115 192.515 59.3767 192.845 59.71C193.175 60.0433 193.43 60.4367 193.61 60.89C193.793 61.3433 193.885 61.8317 193.885 62.355ZM192.155 62.355C192.155 61.995 192.108 61.6717 192.015 61.385C191.921 61.095 191.786 60.85 191.61 60.65C191.436 60.45 191.223 60.2967 190.97 60.19C190.716 60.0833 190.428 60.03 190.105 60.03C189.778 60.03 189.486 60.0833 189.23 60.19C188.976 60.2967 188.761 60.45 188.585 60.65C188.411 60.85 188.278 61.095 188.185 61.385C188.091 61.6717 188.045 61.995 188.045 62.355C188.045 62.7183 188.091 63.045 188.185 63.335C188.278 63.6217 188.411 63.865 188.585 64.065C188.761 64.265 188.976 64.4183 189.23 64.525C189.486 64.6283 189.778 64.68 190.105 64.68C190.428 64.68 190.716 64.6283 190.97 64.525C191.223 64.4183 191.436 64.265 191.61 64.065C191.786 63.865 191.921 63.6217 192.015 63.335C192.108 63.045 192.155 62.7183 192.155 62.355ZM202.483 63.305V66H200.793V58.715H203.163C203.689 58.715 204.138 58.77 204.508 58.88C204.881 58.9867 205.184 59.1367 205.418 59.33C205.654 59.5233 205.826 59.7517 205.933 60.015C206.039 60.2783 206.093 60.565 206.093 60.875C206.093 61.1117 206.061 61.335 205.998 61.545C205.934 61.755 205.839 61.95 205.713 62.13C205.589 62.3067 205.436 62.465 205.253 62.605C205.073 62.745 204.864 62.86 204.628 62.95C204.741 63.0067 204.846 63.0767 204.943 63.16C205.043 63.2433 205.129 63.345 205.203 63.465L206.753 66H205.223C204.939 66 204.736 65.8933 204.613 65.68L203.403 63.565C203.349 63.4717 203.286 63.405 203.213 63.365C203.143 63.325 203.043 63.305 202.913 63.305H202.483ZM202.483 62.14H203.163C203.393 62.14 203.588 62.1117 203.748 62.055C203.911 61.995 204.044 61.9133 204.148 61.81C204.251 61.7067 204.326 61.5867 204.373 61.45C204.419 61.31 204.443 61.16 204.443 61C204.443 60.68 204.338 60.43 204.128 60.25C203.921 60.07 203.599 59.98 203.163 59.98H202.483V62.14ZM218.53 58.715V60.055H216.48V66H214.79V60.055H212.74V58.715H218.53Z" fill="#525863"/>
<defs>
<radialGradient id="paint0_radial_42_1088" cx="0" cy="0" r="1" gradientUnits="userSpaceOnUse" gradientTransform="translate(121.5 42) rotate(90) scale(42 121.5)">
<stop stop-color="#F0F4F9"/>
<stop offset="1" stop-color="#D7DBE1"/>
</radialGradient>
</defs>
</svg>
