<svg width="243" height="84" viewBox="0 0 243 84" fill="none" xmlns="http://www.w3.org/2000/svg">
<rect width="243" height="84" rx="13" fill="url(#paint0_radial_38_185)"/>
<path d="M33.0056 40.0864C33.0056 39.4526 33.1936 39.0015 33.5695 38.7329C33.9455 38.4536 34.3108 38.314 34.6653 38.314H36.5827C37.5495 38.314 38.2854 38.8403 38.7903 39.8931C39.2951 40.9458 40.4284 41.4722 42.1902 41.4722L47.8298 41.585C49.7204 41.585 50.6657 40.9673 50.6657 39.7319C50.6657 38.7974 49.511 38.0615 47.2014 37.5244C46.1701 37.2773 45.0315 37.0356 43.7854 36.7993C42.5393 36.5522 41.2986 36.2461 40.0632 35.8809C38.8386 35.5156 37.7107 35.0859 36.6794 34.5918C35.6482 34.0977 34.8103 33.4209 34.1657 32.5615C33.532 31.6914 33.2151 30.6709 33.2151 29.5C33.2151 27.3408 33.9831 25.6812 35.5193 24.521C37.0554 23.3501 39.698 22.7646 43.447 22.7646L47.5398 22.8613C49.7419 22.8613 51.7238 23.4307 53.4856 24.5693C55.258 25.6973 56.1443 27.1099 56.1443 28.8071C56.1443 29.4409 55.9563 29.8975 55.5803 30.1768C55.2043 30.4561 54.8445 30.5957 54.5007 30.5957H52.5832C51.6164 30.5957 50.8806 30.0693 50.3757 29.0166C49.8708 27.9531 48.7375 27.4214 46.9758 27.4214L42.1257 27.3247C40.2351 27.3247 39.2898 27.9424 39.2898 29.1777C39.2898 29.8545 39.886 30.4077 41.0783 30.8374C42.2815 31.2671 43.7317 31.6484 45.4289 31.9814C47.1369 32.3037 48.8503 32.6958 50.5691 33.1577C52.2878 33.6196 53.7434 34.3823 54.9358 35.4458C56.1389 36.4985 56.7404 37.8145 56.7404 39.3936C56.7404 41.5527 55.967 43.2178 54.4201 44.3887C52.884 45.5488 50.2468 46.1289 46.5085 46.1289L41.6262 46.0322C39.424 46.0322 37.4367 45.4683 35.6643 44.3403C33.8918 43.2017 33.0056 41.7837 33.0056 40.0864ZM60.7114 36.8638V24.4243C60.7114 24.0054 60.8564 23.6455 61.1465 23.3447C61.4472 23.0439 61.8179 22.8936 62.2583 22.8936H65.2715C65.6797 22.8936 66.0342 23.0439 66.3349 23.3447C66.6357 23.6455 66.7861 24.0054 66.7861 24.4243V36.896C66.7861 38.4751 67.1299 39.6514 67.8174 40.4248C68.5156 41.1982 69.5898 41.585 71.04 41.585H73.6181C75.0683 41.585 76.1372 41.1982 76.8247 40.4248C77.5229 39.6514 77.872 38.4751 77.872 36.896V24.4243C77.872 24.0054 78.0171 23.6455 78.3071 23.3447C78.6079 23.0439 78.9678 22.8936 79.3867 22.8936H82.3838C82.8242 22.8936 83.1948 23.0439 83.4956 23.3447C83.7964 23.6455 83.9468 24.0054 83.9468 24.4243V36.8638C83.9468 39.8071 83.082 42.0898 81.3525 43.7119C79.623 45.3232 77.0986 46.1289 73.7793 46.1289H70.8789C67.5488 46.1289 65.019 45.3232 63.2895 43.7119C61.5708 42.0898 60.7114 39.8071 60.7114 36.8638ZM89.2229 24.4243C89.2229 24.0054 89.3733 23.6455 89.6741 23.3447C89.9748 23.0439 90.3347 22.8936 90.7537 22.8936H103.854C107.066 22.8936 109.434 23.8174 110.96 25.665C111.808 26.6855 112.233 27.9907 112.233 29.5806C112.233 31.1597 111.508 32.54 110.057 33.7217C112.12 34.8281 113.151 36.5469 113.151 38.8779C113.151 41.209 112.324 42.9814 110.67 44.1953C109.026 45.3984 107.007 46 104.611 46H90.7537C90.3347 46 89.9748 45.855 89.6741 45.5649C89.3733 45.2642 89.2229 44.9043 89.2229 44.4854V24.4243ZM95.2976 41.6494H104.514C105.342 41.6494 105.975 41.4023 106.416 40.9082C106.856 40.4141 107.076 39.7373 107.076 38.8779C107.076 38.0186 106.856 37.3418 106.416 36.8477C105.975 36.3535 105.342 36.1064 104.514 36.1064H95.2976V41.6494ZM95.2976 31.8687H103.918C104.595 31.8687 105.137 31.6699 105.546 31.2725C105.954 30.8643 106.158 30.3003 106.158 29.5806C106.158 28.8501 105.954 28.2808 105.546 27.8726C105.137 27.4644 104.595 27.2603 103.918 27.2603H95.2976V31.8687ZM115.962 25.939V24.4243C115.962 23.9839 116.107 23.6187 116.397 23.3286C116.698 23.0386 117.058 22.8936 117.477 22.8936H136.297C136.716 22.8936 137.07 23.0386 137.36 23.3286C137.661 23.6187 137.812 23.9839 137.812 24.4243V26.229C137.812 26.6694 137.715 27.0938 137.521 27.502C137.339 27.9102 137.167 28.2002 137.006 28.3721L136.297 29.0972L123.616 41.4399H136.458C136.898 41.4399 137.258 41.585 137.538 41.875C137.828 42.165 137.973 42.5303 137.973 42.9707V44.4854C137.973 44.9258 137.828 45.291 137.538 45.5811C137.258 45.8604 136.898 46 136.458 46H117.75C117.332 46 116.972 45.8604 116.671 45.5811C116.381 45.291 116.236 44.9258 116.236 44.4854V42.6968C116.236 41.6655 116.741 40.645 117.75 39.6353L130.029 27.4536H117.477C117.058 27.4536 116.698 27.314 116.397 27.0347C116.107 26.7446 115.962 26.3794 115.962 25.939ZM142.089 44.4531V24.3921C142.089 23.9731 142.239 23.6187 142.54 23.3286C142.841 23.0386 143.2 22.8936 143.619 22.8936H162.198C162.617 22.8936 162.971 23.0439 163.261 23.3447C163.562 23.6455 163.713 24.0054 163.713 24.4243V25.939C163.713 26.3579 163.562 26.7178 163.261 27.0186C162.971 27.3086 162.617 27.4536 162.198 27.4536H148.163V32.1426H160.248C160.667 32.1426 161.022 32.293 161.312 32.5938C161.613 32.8838 161.763 33.2383 161.763 33.6572V35.1719C161.763 35.5908 161.613 35.9507 161.312 36.2515C161.022 36.5415 160.667 36.6865 160.248 36.6865H148.163V41.4399H162.166C162.574 41.4399 162.923 41.585 163.213 41.875C163.503 42.165 163.648 42.5195 163.648 42.9385V44.4854C163.648 44.9043 163.498 45.2642 163.197 45.5649C162.896 45.855 162.536 46 162.117 46H143.619C143.2 46 142.841 45.855 142.54 45.5649C142.239 45.2642 142.089 44.8936 142.089 44.4531ZM191.66 45.3071C191.66 45.769 191.386 46 190.838 46H186.971C186.563 46 186.112 45.855 185.618 45.5649C185.134 45.2642 184.764 44.9043 184.506 44.4854L181.767 40.1992C180.639 38.4375 179.274 37.5566 177.674 37.5566H173.742V44.4854C173.742 44.9043 173.592 45.2642 173.291 45.5649C173.001 45.855 172.646 46 172.228 46H169.198C168.779 46 168.419 45.855 168.119 45.5649C167.818 45.2642 167.667 44.9043 167.667 44.4854V24.4243C167.667 24.0054 167.813 23.6455 168.103 23.3447C168.393 23.0439 168.747 22.8936 169.166 22.8936H182.459C184.919 22.8936 186.934 23.5542 188.502 24.8755C190.081 26.1968 190.871 27.98 190.871 30.2251C190.871 33.3511 188.846 35.3115 184.796 36.1064C185.44 36.3428 186.037 36.751 186.584 37.3311C187.132 37.9004 187.761 38.7329 188.47 39.8286L191.402 44.4854C191.574 44.7861 191.66 45.0601 191.66 45.3071ZM173.742 32.9966H180.606C181.713 32.9966 182.685 32.7764 183.523 32.3359C184.372 31.8955 184.796 31.1919 184.796 30.2251C184.796 29.2583 184.372 28.5547 183.523 28.1143C182.685 27.6738 181.713 27.4536 180.606 27.4536H173.742V32.9966ZM216.659 43.6152C214.468 45.5381 211.245 46.4995 206.991 46.4995C202.748 46.4995 199.525 45.5381 197.323 43.6152C195.121 41.6816 194.02 38.6255 194.02 34.4468C194.02 30.2681 195.121 27.2173 197.323 25.2944C199.525 23.3716 202.748 22.4102 206.991 22.4102C211.245 22.4102 214.468 23.3716 216.659 25.2944C218.861 27.2173 219.962 30.2681 219.962 34.4468C219.962 38.6255 218.861 41.6816 216.659 43.6152ZM212.26 28.6943C211.175 27.4053 209.419 26.7607 206.991 26.7607C204.574 26.7607 202.818 27.4053 201.722 28.6943C200.637 29.9834 200.095 31.9062 200.095 34.4629C200.095 37.0088 200.637 38.9263 201.722 40.2153C202.818 41.4937 204.574 42.1328 206.991 42.1328C209.419 42.1328 211.175 41.4937 212.26 40.2153C213.345 38.9263 213.887 37.0088 213.887 34.4629C213.887 31.9062 213.345 29.9834 212.26 28.6943Z" fill="#353A3F"/>
<path d="M43.0332 60.195C42.9832 60.275 42.9299 60.335 42.8732 60.375C42.8199 60.415 42.7499 60.435 42.6632 60.435C42.5866 60.435 42.5032 60.4117 42.4132 60.365C42.3266 60.315 42.2266 60.26 42.1132 60.2C42.0032 60.14 41.8766 60.0867 41.7332 60.04C41.5899 59.99 41.4266 59.965 41.2432 59.965C40.9266 59.965 40.6899 60.0333 40.5332 60.17C40.3799 60.3033 40.3032 60.485 40.3032 60.715C40.3032 60.8617 40.3499 60.9833 40.4432 61.08C40.5366 61.1767 40.6582 61.26 40.8082 61.33C40.9616 61.4 41.1349 61.465 41.3282 61.525C41.5249 61.5817 41.7249 61.6467 41.9282 61.72C42.1316 61.79 42.3299 61.8733 42.5232 61.97C42.7199 62.0667 42.8932 62.19 43.0432 62.34C43.1966 62.49 43.3199 62.6733 43.4132 62.89C43.5066 63.1033 43.5532 63.3617 43.5532 63.665C43.5532 64.0017 43.4949 64.3167 43.3782 64.61C43.2616 64.9033 43.0916 65.16 42.8682 65.38C42.6482 65.5967 42.3749 65.7683 42.0482 65.895C41.7249 66.0183 41.3566 66.08 40.9432 66.08C40.7166 66.08 40.4849 66.0567 40.2482 66.01C40.0149 65.9633 39.7882 65.8983 39.5682 65.815C39.3482 65.7283 39.1416 65.6267 38.9482 65.51C38.7549 65.3933 38.5866 65.2633 38.4432 65.12L38.9432 64.33C38.9799 64.27 39.0316 64.2217 39.0982 64.185C39.1649 64.1483 39.2366 64.13 39.3132 64.13C39.4132 64.13 39.5132 64.1617 39.6132 64.225C39.7166 64.2883 39.8316 64.3583 39.9582 64.435C40.0882 64.5117 40.2366 64.5817 40.4032 64.645C40.5699 64.7083 40.7666 64.74 40.9932 64.74C41.2999 64.74 41.5382 64.6733 41.7082 64.54C41.8782 64.4033 41.9632 64.1883 41.9632 63.895C41.9632 63.725 41.9166 63.5867 41.8232 63.48C41.7299 63.3733 41.6066 63.285 41.4532 63.215C41.3032 63.145 41.1316 63.0833 40.9382 63.03C40.7449 62.9767 40.5466 62.9183 40.3432 62.855C40.1399 62.7883 39.9416 62.7083 39.7482 62.615C39.5549 62.5183 39.3816 62.3933 39.2282 62.24C39.0782 62.0833 38.9566 61.89 38.8632 61.66C38.7699 61.4267 38.7232 61.14 38.7232 60.8C38.7232 60.5267 38.7782 60.26 38.8882 60C38.9982 59.74 39.1599 59.5083 39.3732 59.305C39.5866 59.1017 39.8482 58.94 40.1582 58.82C40.4682 58.6967 40.8232 58.635 41.2232 58.635C41.4466 58.635 41.6632 58.6533 41.8732 58.69C42.0866 58.7233 42.2882 58.775 42.4782 58.845C42.6682 58.9117 42.8449 58.9933 43.0082 59.09C43.1749 59.1833 43.3232 59.29 43.4532 59.41L43.0332 60.195ZM53.5232 64.665C53.7498 64.665 53.9515 64.6283 54.1282 64.555C54.3082 64.4783 54.4598 64.37 54.5832 64.23C54.7065 64.09 54.7998 63.92 54.8632 63.72C54.9298 63.5167 54.9632 63.2867 54.9632 63.03V58.715H56.6532V63.03C56.6532 63.4767 56.5798 63.8867 56.4332 64.26C56.2898 64.6333 56.0832 64.955 55.8132 65.225C55.5432 65.495 55.2148 65.705 54.8282 65.855C54.4415 66.005 54.0065 66.08 53.5232 66.08C53.0365 66.08 52.5998 66.005 52.2132 65.855C51.8265 65.705 51.4982 65.495 51.2282 65.225C50.9582 64.955 50.7515 64.6333 50.6082 64.26C50.4648 63.8867 50.3932 63.4767 50.3932 63.03V58.715H52.0832V63.025C52.0832 63.2817 52.1148 63.5117 52.1782 63.715C52.2448 63.915 52.3398 64.0867 52.4632 64.23C52.5865 64.37 52.7365 64.4783 52.9132 64.555C53.0932 64.6283 53.2965 64.665 53.5232 64.665ZM63.849 66V58.715H66.529C67.0324 58.715 67.4607 58.7617 67.814 58.855C68.1674 58.9483 68.4557 59.08 68.679 59.25C68.9024 59.42 69.064 59.6267 69.164 59.87C69.2674 60.1133 69.319 60.385 69.319 60.685C69.319 60.8483 69.2957 61.0067 69.249 61.16C69.2024 61.31 69.129 61.4517 69.029 61.585C68.929 61.7183 68.8007 61.84 68.644 61.95C68.4874 62.0567 68.299 62.15 68.079 62.23C68.559 62.3467 68.914 62.5367 69.144 62.8C69.374 63.06 69.489 63.395 69.489 63.805C69.489 64.115 69.429 64.4033 69.309 64.67C69.189 64.9367 69.0124 65.17 68.779 65.37C68.549 65.5667 68.264 65.7217 67.924 65.835C67.584 65.945 67.1957 66 66.759 66H63.849ZM65.539 62.91V64.725H66.729C66.9524 64.725 67.134 64.6967 67.274 64.64C67.4174 64.5833 67.529 64.51 67.609 64.42C67.689 64.33 67.744 64.2283 67.774 64.115C67.804 64.0017 67.819 63.8867 67.819 63.77C67.819 63.6367 67.8007 63.5167 67.764 63.41C67.7307 63.3033 67.6707 63.2133 67.584 63.14C67.5007 63.0667 67.389 63.01 67.249 62.97C67.109 62.93 66.9324 62.91 66.719 62.91H65.539ZM65.539 61.78H66.419C66.6057 61.78 66.774 61.7667 66.924 61.74C67.074 61.7133 67.2007 61.6667 67.304 61.6C67.4107 61.5333 67.4907 61.4417 67.544 61.325C67.6007 61.2083 67.629 61.0617 67.629 60.885C67.629 60.7117 67.6074 60.5683 67.564 60.455C67.5207 60.3383 67.454 60.245 67.364 60.175C67.274 60.105 67.159 60.055 67.019 60.025C66.8824 59.995 66.719 59.98 66.529 59.98H65.539V61.78ZM81.8415 58.715V59.325C81.8415 59.4117 81.8265 59.4967 81.7965 59.58C81.7699 59.6633 81.7315 59.7417 81.6815 59.815L78.2615 64.7H81.7315V66H76.1115V65.35C76.1115 65.2733 76.1249 65.1983 76.1515 65.125C76.1782 65.0483 76.2149 64.9783 76.2615 64.915L79.6915 60.015H76.3915V58.715H81.8415ZM93.405 58.715V60.015H90.415V61.715H92.705V62.965H90.415V64.7H93.405V66H88.715V58.715H93.405ZM102.159 63.305V66H100.469V58.715H102.839C103.366 58.715 103.814 58.77 104.184 58.88C104.558 58.9867 104.861 59.1367 105.094 59.33C105.331 59.5233 105.503 59.7517 105.609 60.015C105.716 60.2783 105.769 60.565 105.769 60.875C105.769 61.1117 105.738 61.335 105.674 61.545C105.611 61.755 105.516 61.95 105.389 62.13C105.266 62.3067 105.113 62.465 104.929 62.605C104.749 62.745 104.541 62.86 104.304 62.95C104.418 63.0067 104.523 63.0767 104.619 63.16C104.719 63.2433 104.806 63.345 104.879 63.465L106.429 66H104.899C104.616 66 104.413 65.8933 104.289 65.68L103.079 63.565C103.026 63.4717 102.963 63.405 102.889 63.365C102.819 63.325 102.719 63.305 102.589 63.305H102.159ZM102.159 62.14H102.839C103.069 62.14 103.264 62.1117 103.424 62.055C103.588 61.995 103.721 61.9133 103.824 61.81C103.928 61.7067 104.003 61.5867 104.049 61.45C104.096 61.31 104.119 61.16 104.119 61C104.119 60.68 104.014 60.43 103.804 60.25C103.598 60.07 103.276 59.98 102.839 59.98H102.159V62.14ZM120.156 62.355C120.156 62.8817 120.064 63.3717 119.881 63.825C119.701 64.2783 119.446 64.6733 119.116 65.01C118.786 65.3433 118.387 65.605 117.921 65.795C117.457 65.985 116.942 66.08 116.376 66.08C115.809 66.08 115.292 65.985 114.826 65.795C114.359 65.605 113.959 65.3433 113.626 65.01C113.296 64.6733 113.039 64.2783 112.856 63.825C112.676 63.3717 112.586 62.8817 112.586 62.355C112.586 61.8283 112.676 61.3383 112.856 60.885C113.039 60.4317 113.296 60.0383 113.626 59.705C113.959 59.3717 114.359 59.11 114.826 58.92C115.292 58.73 115.809 58.635 116.376 58.635C116.942 58.635 117.457 58.7317 117.921 58.925C118.387 59.115 118.786 59.3767 119.116 59.71C119.446 60.0433 119.701 60.4367 119.881 60.89C120.064 61.3433 120.156 61.8317 120.156 62.355ZM118.426 62.355C118.426 61.995 118.379 61.6717 118.286 61.385C118.192 61.095 118.057 60.85 117.881 60.65C117.707 60.45 117.494 60.2967 117.241 60.19C116.987 60.0833 116.699 60.03 116.376 60.03C116.049 60.03 115.757 60.0833 115.501 60.19C115.247 60.2967 115.032 60.45 114.856 60.65C114.682 60.85 114.549 61.095 114.456 61.385C114.362 61.6717 114.316 61.995 114.316 62.355C114.316 62.7183 114.362 63.045 114.456 63.335C114.549 63.6217 114.682 63.865 114.856 64.065C115.032 64.265 115.247 64.4183 115.501 64.525C115.757 64.6283 116.049 64.68 116.376 64.68C116.699 64.68 116.987 64.6283 117.241 64.525C117.494 64.4183 117.707 64.265 117.881 64.065C118.057 63.865 118.192 63.6217 118.286 63.335C118.379 63.045 118.426 62.7183 118.426 62.355ZM126.964 62.335H129.664V63.585H126.964V62.335ZM140.925 60.195C140.875 60.275 140.822 60.335 140.765 60.375C140.712 60.415 140.642 60.435 140.555 60.435C140.478 60.435 140.395 60.4117 140.305 60.365C140.218 60.315 140.118 60.26 140.005 60.2C139.895 60.14 139.768 60.0867 139.625 60.04C139.482 59.99 139.318 59.965 139.135 59.965C138.818 59.965 138.582 60.0333 138.425 60.17C138.272 60.3033 138.195 60.485 138.195 60.715C138.195 60.8617 138.242 60.9833 138.335 61.08C138.428 61.1767 138.55 61.26 138.7 61.33C138.853 61.4 139.027 61.465 139.22 61.525C139.417 61.5817 139.617 61.6467 139.82 61.72C140.023 61.79 140.222 61.8733 140.415 61.97C140.612 62.0667 140.785 62.19 140.935 62.34C141.088 62.49 141.212 62.6733 141.305 62.89C141.398 63.1033 141.445 63.3617 141.445 63.665C141.445 64.0017 141.387 64.3167 141.27 64.61C141.153 64.9033 140.983 65.16 140.76 65.38C140.54 65.5967 140.267 65.7683 139.94 65.895C139.617 66.0183 139.248 66.08 138.835 66.08C138.608 66.08 138.377 66.0567 138.14 66.01C137.907 65.9633 137.68 65.8983 137.46 65.815C137.24 65.7283 137.033 65.6267 136.84 65.51C136.647 65.3933 136.478 65.2633 136.335 65.12L136.835 64.33C136.872 64.27 136.923 64.2217 136.99 64.185C137.057 64.1483 137.128 64.13 137.205 64.13C137.305 64.13 137.405 64.1617 137.505 64.225C137.608 64.2883 137.723 64.3583 137.85 64.435C137.98 64.5117 138.128 64.5817 138.295 64.645C138.462 64.7083 138.658 64.74 138.885 64.74C139.192 64.74 139.43 64.6733 139.6 64.54C139.77 64.4033 139.855 64.1883 139.855 63.895C139.855 63.725 139.808 63.5867 139.715 63.48C139.622 63.3733 139.498 63.285 139.345 63.215C139.195 63.145 139.023 63.0833 138.83 63.03C138.637 62.9767 138.438 62.9183 138.235 62.855C138.032 62.7883 137.833 62.7083 137.64 62.615C137.447 62.5183 137.273 62.3933 137.12 62.24C136.97 62.0833 136.848 61.89 136.755 61.66C136.662 61.4267 136.615 61.14 136.615 60.8C136.615 60.5267 136.67 60.26 136.78 60C136.89 59.74 137.052 59.5083 137.265 59.305C137.478 59.1017 137.74 58.94 138.05 58.82C138.36 58.6967 138.715 58.635 139.115 58.635C139.338 58.635 139.555 58.6533 139.765 58.69C139.978 58.7233 140.18 58.775 140.37 58.845C140.56 58.9117 140.737 58.9933 140.9 59.09C141.067 59.1833 141.215 59.29 141.345 59.41L140.925 60.195ZM151.415 64.665C151.642 64.665 151.843 64.6283 152.02 64.555C152.2 64.4783 152.352 64.37 152.475 64.23C152.598 64.09 152.692 63.92 152.755 63.72C152.822 63.5167 152.855 63.2867 152.855 63.03V58.715H154.545V63.03C154.545 63.4767 154.472 63.8867 154.325 64.26C154.182 64.6333 153.975 64.955 153.705 65.225C153.435 65.495 153.107 65.705 152.72 65.855C152.333 66.005 151.898 66.08 151.415 66.08C150.928 66.08 150.492 66.005 150.105 65.855C149.718 65.705 149.39 65.495 149.12 65.225C148.85 64.955 148.643 64.6333 148.5 64.26C148.357 63.8867 148.285 63.4767 148.285 63.03V58.715H149.975V63.025C149.975 63.2817 150.007 63.5117 150.07 63.715C150.137 63.915 150.232 64.0867 150.355 64.23C150.478 64.37 150.628 64.4783 150.805 64.555C150.985 64.6283 151.188 64.665 151.415 64.665ZM163.431 63.565V66H161.741V58.715H164.311C164.824 58.715 165.264 58.7767 165.631 58.9C166.001 59.02 166.304 59.1867 166.541 59.4C166.781 59.6133 166.957 59.865 167.071 60.155C167.184 60.445 167.241 60.7583 167.241 61.095C167.241 61.4583 167.182 61.7917 167.066 62.095C166.949 62.3983 166.771 62.6583 166.531 62.875C166.291 63.0917 165.986 63.2617 165.616 63.385C165.249 63.505 164.814 63.565 164.311 63.565H163.431ZM163.431 62.29H164.311C164.751 62.29 165.067 62.185 165.261 61.975C165.454 61.765 165.551 61.4717 165.551 61.095C165.551 60.9283 165.526 60.7767 165.476 60.64C165.426 60.5033 165.349 60.3867 165.246 60.29C165.146 60.19 165.017 60.1133 164.861 60.06C164.707 60.0067 164.524 59.98 164.311 59.98H163.431V62.29ZM175.908 63.565V66H174.218V58.715H176.788C177.301 58.715 177.741 58.7767 178.108 58.9C178.478 59.02 178.781 59.1867 179.018 59.4C179.258 59.6133 179.434 59.865 179.548 60.155C179.661 60.445 179.718 60.7583 179.718 61.095C179.718 61.4583 179.659 61.7917 179.543 62.095C179.426 62.3983 179.248 62.6583 179.008 62.875C178.768 63.0917 178.463 63.2617 178.093 63.385C177.726 63.505 177.291 63.565 176.788 63.565H175.908ZM175.908 62.29H176.788C177.228 62.29 177.544 62.185 177.738 61.975C177.931 61.765 178.028 61.4717 178.028 61.095C178.028 60.9283 178.003 60.7767 177.953 60.64C177.903 60.5033 177.826 60.3867 177.723 60.29C177.623 60.19 177.494 60.1133 177.338 60.06C177.184 60.0067 177.001 59.98 176.788 59.98H175.908V62.29ZM193.885 62.355C193.885 62.8817 193.793 63.3717 193.61 63.825C193.43 64.2783 193.175 64.6733 192.845 65.01C192.515 65.3433 192.116 65.605 191.65 65.795C191.186 65.985 190.671 66.08 190.105 66.08C189.538 66.08 189.021 65.985 188.555 65.795C188.088 65.605 187.688 65.3433 187.355 65.01C187.025 64.6733 186.768 64.2783 186.585 63.825C186.405 63.3717 186.315 62.8817 186.315 62.355C186.315 61.8283 186.405 61.3383 186.585 60.885C186.768 60.4317 187.025 60.0383 187.355 59.705C187.688 59.3717 188.088 59.11 188.555 58.92C189.021 58.73 189.538 58.635 190.105 58.635C190.671 58.635 191.186 58.7317 191.65 58.925C192.116 59.115 192.515 59.3767 192.845 59.71C193.175 60.0433 193.43 60.4367 193.61 60.89C193.793 61.3433 193.885 61.8317 193.885 62.355ZM192.155 62.355C192.155 61.995 192.108 61.6717 192.015 61.385C191.921 61.095 191.786 60.85 191.61 60.65C191.436 60.45 191.223 60.2967 190.97 60.19C190.716 60.0833 190.428 60.03 190.105 60.03C189.778 60.03 189.486 60.0833 189.23 60.19C188.976 60.2967 188.761 60.45 188.585 60.65C188.411 60.85 188.278 61.095 188.185 61.385C188.091 61.6717 188.045 61.995 188.045 62.355C188.045 62.7183 188.091 63.045 188.185 63.335C188.278 63.6217 188.411 63.865 188.585 64.065C188.761 64.265 188.976 64.4183 189.23 64.525C189.486 64.6283 189.778 64.68 190.105 64.68C190.428 64.68 190.716 64.6283 190.97 64.525C191.223 64.4183 191.436 64.265 191.61 64.065C191.786 63.865 191.921 63.6217 192.015 63.335C192.108 63.045 192.155 62.7183 192.155 62.355ZM202.483 63.305V66H200.793V58.715H203.163C203.689 58.715 204.138 58.77 204.508 58.88C204.881 58.9867 205.184 59.1367 205.418 59.33C205.654 59.5233 205.826 59.7517 205.933 60.015C206.039 60.2783 206.093 60.565 206.093 60.875C206.093 61.1117 206.061 61.335 205.998 61.545C205.934 61.755 205.839 61.95 205.713 62.13C205.589 62.3067 205.436 62.465 205.253 62.605C205.073 62.745 204.864 62.86 204.628 62.95C204.741 63.0067 204.846 63.0767 204.943 63.16C205.043 63.2433 205.129 63.345 205.203 63.465L206.753 66H205.223C204.939 66 204.736 65.8933 204.613 65.68L203.403 63.565C203.349 63.4717 203.286 63.405 203.213 63.365C203.143 63.325 203.043 63.305 202.913 63.305H202.483ZM202.483 62.14H203.163C203.393 62.14 203.588 62.1117 203.748 62.055C203.911 61.995 204.044 61.9133 204.148 61.81C204.251 61.7067 204.326 61.5867 204.373 61.45C204.419 61.31 204.443 61.16 204.443 61C204.443 60.68 204.338 60.43 204.128 60.25C203.921 60.07 203.599 59.98 203.163 59.98H202.483V62.14ZM218.53 58.715V60.055H216.48V66H214.79V60.055H212.74V58.715H218.53Z" fill="#525863"/>
<defs>
<radialGradient id="paint0_radial_38_185" cx="0" cy="0" r="1" gradientUnits="userSpaceOnUse" gradientTransform="translate(121.5 42) rotate(90) scale(42 121.5)">
<stop stop-color="#F0F4F9"/>
<stop offset="1" stop-color="#D7DBE1"/>
</radialGradient>
</defs>
</svg>
