<svg width="191" height="66" viewBox="0 0 191 66" fill="none" xmlns="http://www.w3.org/2000/svg">
<rect width="191" height="66" rx="13" fill="url(#paint0_radial_425_653)"/>
<path d="M19.0046 31.1616C19.0046 30.6431 19.1584 30.2739 19.466 30.0542C19.7736 29.8257 20.0724 29.7114 20.3625 29.7114H21.9313C22.7223 29.7114 23.3244 30.1421 23.7375 31.0034C24.1506 31.8647 25.0778 32.2954 26.5192 32.2954L31.1335 32.3877C32.6804 32.3877 33.4538 31.8823 33.4538 30.8716C33.4538 30.1069 32.509 29.5049 30.6193 29.0654C29.7756 28.8633 28.8439 28.6655 27.8244 28.4722C26.8049 28.27 25.7897 28.0195 24.779 27.7207C23.777 27.4219 22.8542 27.0703 22.0104 26.666C21.1667 26.2617 20.4811 25.708 19.9538 25.0049C19.4352 24.293 19.176 23.458 19.176 22.5C19.176 20.7334 19.8044 19.3755 21.0612 18.4263C22.318 17.4683 24.4802 16.9893 27.5475 16.9893L30.8962 17.0684C32.6979 17.0684 34.3195 17.5342 35.7609 18.4658C37.2111 19.3887 37.9362 20.5444 37.9362 21.9331C37.9362 22.4517 37.7824 22.8252 37.4748 23.0537C37.1672 23.2822 36.8727 23.3965 36.5915 23.3965H35.0226C34.2316 23.3965 33.6296 22.9658 33.2165 22.1045C32.8034 21.2344 31.8762 20.7993 30.4347 20.7993L26.4665 20.7202C24.9196 20.7202 24.1462 21.2256 24.1462 22.2363C24.1462 22.79 24.634 23.2427 25.6096 23.5942C26.5939 23.9458 27.7804 24.2578 29.1691 24.5303C30.5666 24.7939 31.9684 25.1147 33.3747 25.4927C34.7809 25.8706 35.9719 26.4946 36.9474 27.3647C37.9318 28.2261 38.424 29.3027 38.424 30.5947C38.424 32.3613 37.7912 33.7236 36.5256 34.6816C35.2687 35.6309 33.111 36.1055 30.0524 36.1055L26.0578 36.0264C24.256 36.0264 22.6301 35.5649 21.1799 34.6421C19.7297 33.7104 19.0046 32.5503 19.0046 31.1616ZM41.673 28.5249V18.3472C41.673 18.0044 41.7916 17.71 42.0289 17.4639C42.275 17.2178 42.5782 17.0947 42.9386 17.0947H45.4039C45.7379 17.0947 46.0279 17.2178 46.274 17.4639C46.5201 17.71 46.6432 18.0044 46.6432 18.3472V28.5513C46.6432 29.8433 46.9244 30.8057 47.4869 31.4385C48.0582 32.0713 48.9371 32.3877 50.1237 32.3877H52.233C53.4195 32.3877 54.2941 32.0713 54.8566 31.4385C55.4279 30.8057 55.7135 29.8433 55.7135 28.5513V18.3472C55.7135 18.0044 55.8321 17.71 56.0695 17.4639C56.3155 17.2178 56.61 17.0947 56.9528 17.0947H59.4049C59.7653 17.0947 60.0685 17.2178 60.3146 17.4639C60.5607 17.71 60.6837 18.0044 60.6837 18.3472V28.5249C60.6837 30.9331 59.9762 32.8008 58.5612 34.1279C57.1461 35.4463 55.0807 36.1055 52.3649 36.1055H49.9918C47.2672 36.1055 45.1974 35.4463 43.7823 34.1279C42.3761 32.8008 41.673 30.9331 41.673 28.5249ZM65.0005 18.3472C65.0005 18.0044 65.1236 17.71 65.3697 17.4639C65.6158 17.2178 65.9102 17.0947 66.253 17.0947H76.9712C79.5992 17.0947 81.5372 17.8506 82.7852 19.3623C83.4795 20.1973 83.8267 21.2651 83.8267 22.5659C83.8267 23.8579 83.2335 24.9873 82.0469 25.9541C83.7344 26.8594 84.5782 28.2656 84.5782 30.1729C84.5782 32.0801 83.9014 33.5303 82.5479 34.5234C81.2032 35.5078 79.5508 36 77.5909 36H66.253C65.9102 36 65.6158 35.8813 65.3697 35.644C65.1236 35.3979 65.0005 35.1035 65.0005 34.7607V18.3472ZM69.9708 32.4404H77.5118C78.1885 32.4404 78.7071 32.2383 79.0674 31.834C79.4278 31.4297 79.608 30.876 79.608 30.1729C79.608 29.4697 79.4278 28.916 79.0674 28.5117C78.7071 28.1074 78.1885 27.9053 77.5118 27.9053H69.9708V32.4404ZM69.9708 24.438H77.024C77.5777 24.438 78.0215 24.2754 78.3555 23.9502C78.6895 23.6162 78.8565 23.1548 78.8565 22.5659C78.8565 21.9683 78.6895 21.5024 78.3555 21.1685C78.0215 20.8345 77.5777 20.6675 77.024 20.6675H69.9708V24.438ZM86.8779 19.5864V18.3472C86.8779 17.9868 86.9966 17.688 87.2339 17.4507C87.48 17.2134 87.7744 17.0947 88.1172 17.0947H103.516C103.858 17.0947 104.148 17.2134 104.386 17.4507C104.632 17.688 104.755 17.9868 104.755 18.3472V19.8237C104.755 20.1841 104.676 20.5312 104.518 20.8652C104.368 21.1992 104.228 21.4365 104.096 21.5771L103.516 22.1704L93.1401 32.269H103.647C104.008 32.269 104.302 32.3877 104.531 32.625C104.768 32.8623 104.887 33.1611 104.887 33.5215V34.7607C104.887 35.1211 104.768 35.4199 104.531 35.6572C104.302 35.8857 104.008 36 103.647 36H88.3413C87.9985 36 87.7041 35.8857 87.458 35.6572C87.2207 35.4199 87.1021 35.1211 87.1021 34.7607V33.2974C87.1021 32.4536 87.5151 31.6187 88.3413 30.7925L98.3872 20.8257H88.1172C87.7744 20.8257 87.48 20.7114 87.2339 20.4829C86.9966 20.2456 86.8779 19.9468 86.8779 19.5864ZM108.254 34.7344V18.3208C108.254 17.978 108.377 17.688 108.623 17.4507C108.87 17.2134 109.164 17.0947 109.507 17.0947H124.707C125.05 17.0947 125.34 17.2178 125.578 17.4639C125.824 17.71 125.947 18.0044 125.947 18.3472V19.5864C125.947 19.9292 125.824 20.2236 125.578 20.4697C125.34 20.707 125.05 20.8257 124.707 20.8257H113.225V24.6621H123.112C123.455 24.6621 123.745 24.7852 123.982 25.0312C124.228 25.2686 124.352 25.5586 124.352 25.9014V27.1406C124.352 27.4834 124.228 27.7778 123.982 28.0239C123.745 28.2612 123.455 28.3799 123.112 28.3799H113.225V32.269H124.681C125.015 32.269 125.301 32.3877 125.538 32.625C125.775 32.8623 125.894 33.1523 125.894 33.4951V34.7607C125.894 35.1035 125.771 35.3979 125.525 35.644C125.279 35.8813 124.984 36 124.642 36H109.507C109.164 36 108.87 35.8813 108.623 35.644C108.377 35.3979 108.254 35.0947 108.254 34.7344ZM148.813 35.4331C148.813 35.811 148.589 36 148.141 36H144.976C144.642 36 144.273 35.8813 143.869 35.644C143.474 35.3979 143.17 35.1035 142.959 34.7607L140.718 31.2539C139.795 29.8125 138.679 29.0918 137.37 29.0918H134.153V34.7607C134.153 35.1035 134.03 35.3979 133.784 35.644C133.546 35.8813 133.256 36 132.913 36H130.435C130.092 36 129.798 35.8813 129.552 35.644C129.306 35.3979 129.183 35.1035 129.183 34.7607V18.3472C129.183 18.0044 129.301 17.71 129.538 17.4639C129.776 17.2178 130.066 17.0947 130.409 17.0947H141.285C143.298 17.0947 144.946 17.6353 146.229 18.7163C147.521 19.7974 148.167 21.2563 148.167 23.0933C148.167 25.6509 146.51 27.2549 143.197 27.9053C143.724 28.0986 144.212 28.4326 144.66 28.9072C145.108 29.373 145.622 30.0542 146.203 30.9507L148.602 34.7607C148.743 35.0068 148.813 35.231 148.813 35.4331ZM134.153 25.3608H139.769C140.674 25.3608 141.47 25.1807 142.155 24.8203C142.849 24.46 143.197 23.8843 143.197 23.0933C143.197 22.3022 142.849 21.7266 142.155 21.3662C141.47 21.0059 140.674 20.8257 139.769 20.8257H134.153V25.3608ZM169.266 34.0488C167.473 35.6221 164.837 36.4087 161.356 36.4087C157.885 36.4087 155.248 35.6221 153.446 34.0488C151.644 32.4668 150.743 29.9663 150.743 26.5474C150.743 23.1284 151.644 20.6323 153.446 19.0591C155.248 17.4858 157.885 16.6992 161.356 16.6992C164.837 16.6992 167.473 17.4858 169.266 19.0591C171.068 20.6323 171.969 23.1284 171.969 26.5474C171.969 29.9663 171.068 32.4668 169.266 34.0488ZM165.667 21.8408C164.78 20.7861 163.343 20.2588 161.356 20.2588C159.379 20.2588 157.942 20.7861 157.045 21.8408C156.158 22.8955 155.714 24.4688 155.714 26.5605C155.714 28.6436 156.158 30.2124 157.045 31.2671C157.942 32.313 159.379 32.8359 161.356 32.8359C163.343 32.8359 164.78 32.313 165.667 31.2671C166.555 30.2124 166.999 28.6436 166.999 26.5605C166.999 24.4688 166.555 22.8955 165.667 21.8408Z" fill="#353A3F"/>
<path d="M25.3799 46.7755C25.3349 46.8475 25.2869 46.9015 25.2359 46.9375C25.1879 46.9735 25.1249 46.9915 25.0469 46.9915C24.9779 46.9915 24.9029 46.9705 24.8219 46.9285C24.7439 46.8835 24.6539 46.834 24.5519 46.78C24.4529 46.726 24.3389 46.678 24.2099 46.636C24.0809 46.591 23.9339 46.5685 23.7689 46.5685C23.4839 46.5685 23.2709 46.63 23.1299 46.753C22.9919 46.873 22.9229 47.0365 22.9229 47.2435C22.9229 47.3755 22.9649 47.485 23.0489 47.572C23.1329 47.659 23.2424 47.734 23.3774 47.797C23.5154 47.86 23.6714 47.9185 23.8454 47.9725C24.0224 48.0235 24.2024 48.082 24.3854 48.148C24.5684 48.211 24.7469 48.286 24.9209 48.373C25.0979 48.46 25.2539 48.571 25.3889 48.706C25.5269 48.841 25.6379 49.006 25.7219 49.201C25.8059 49.393 25.8479 49.6255 25.8479 49.8985C25.8479 50.2015 25.7954 50.485 25.6904 50.749C25.5854 51.013 25.4324 51.244 25.2314 51.442C25.0334 51.637 24.7874 51.7915 24.4934 51.9055C24.2024 52.0165 23.8709 52.072 23.4989 52.072C23.2949 52.072 23.0864 52.051 22.8734 52.009C22.6634 51.967 22.4594 51.9085 22.2614 51.8335C22.0634 51.7555 21.8774 51.664 21.7034 51.559C21.5294 51.454 21.3779 51.337 21.2489 51.208L21.6989 50.497C21.7319 50.443 21.7784 50.3995 21.8384 50.3665C21.8984 50.3335 21.9629 50.317 22.0319 50.317C22.1219 50.317 22.2119 50.3455 22.3019 50.4025C22.3949 50.4595 22.4984 50.5225 22.6124 50.5915C22.7294 50.6605 22.8629 50.7235 23.0129 50.7805C23.1629 50.8375 23.3399 50.866 23.5439 50.866C23.8199 50.866 24.0344 50.806 24.1874 50.686C24.3404 50.563 24.4169 50.3695 24.4169 50.1055C24.4169 49.9525 24.3749 49.828 24.2909 49.732C24.2069 49.636 24.0959 49.5565 23.9579 49.4935C23.8229 49.4305 23.6684 49.375 23.4944 49.327C23.3204 49.279 23.1419 49.2265 22.9589 49.1695C22.7759 49.1095 22.5974 49.0375 22.4234 48.9535C22.2494 48.8665 22.0934 48.754 21.9554 48.616C21.8204 48.475 21.7109 48.301 21.6269 48.094C21.5429 47.884 21.5009 47.626 21.5009 47.32C21.5009 47.074 21.5504 46.834 21.6494 46.6C21.7484 46.366 21.8939 46.1575 22.0859 45.9745C22.2779 45.7915 22.5134 45.646 22.7924 45.538C23.0714 45.427 23.3909 45.3715 23.7509 45.3715C23.9519 45.3715 24.1469 45.388 24.3359 45.421C24.5279 45.451 24.7094 45.4975 24.8804 45.5605C25.0514 45.6205 25.2104 45.694 25.3574 45.781C25.5074 45.865 25.6409 45.961 25.7579 46.069L25.3799 46.7755ZM33.9208 50.7985C34.1248 50.7985 34.3063 50.7655 34.4653 50.6995C34.6273 50.6305 34.7638 50.533 34.8748 50.407C34.9858 50.281 35.0698 50.128 35.1268 49.948C35.1868 49.765 35.2168 49.558 35.2168 49.327V45.4435H36.7378V49.327C36.7378 49.729 36.6718 50.098 36.5398 50.434C36.4108 50.77 36.2248 51.0595 35.9818 51.3025C35.7388 51.5455 35.4433 51.7345 35.0953 51.8695C34.7473 52.0045 34.3558 52.072 33.9208 52.072C33.4828 52.072 33.0898 52.0045 32.7418 51.8695C32.3938 51.7345 32.0983 51.5455 31.8553 51.3025C31.6123 51.0595 31.4263 50.77 31.2973 50.434C31.1683 50.098 31.1038 49.729 31.1038 49.327V45.4435H32.6248V49.3225C32.6248 49.5535 32.6533 49.7605 32.7103 49.9435C32.7703 50.1235 32.8558 50.278 32.9668 50.407C33.0778 50.533 33.2128 50.6305 33.3718 50.6995C33.5338 50.7655 33.7168 50.7985 33.9208 50.7985ZM42.3141 52V45.4435H44.7261C45.1791 45.4435 45.5646 45.4855 45.8826 45.5695C46.2006 45.6535 46.4601 45.772 46.6611 45.925C46.8621 46.078 47.0076 46.264 47.0976 46.483C47.1906 46.702 47.2371 46.9465 47.2371 47.2165C47.2371 47.3635 47.2161 47.506 47.1741 47.644C47.1321 47.779 47.0661 47.9065 46.9761 48.0265C46.8861 48.1465 46.7706 48.256 46.6296 48.355C46.4886 48.451 46.3191 48.535 46.1211 48.607C46.5531 48.712 46.8726 48.883 47.0796 49.12C47.2866 49.354 47.3901 49.6555 47.3901 50.0245C47.3901 50.3035 47.3361 50.563 47.2281 50.803C47.1201 51.043 46.9611 51.253 46.7511 51.433C46.5441 51.61 46.2876 51.7495 45.9816 51.8515C45.6756 51.9505 45.3261 52 44.9331 52H42.3141ZM43.8351 49.219V50.8525H44.9061C45.1071 50.8525 45.2706 50.827 45.3966 50.776C45.5256 50.725 45.6261 50.659 45.6981 50.578C45.7701 50.497 45.8196 50.4055 45.8466 50.3035C45.8736 50.2015 45.8871 50.098 45.8871 49.993C45.8871 49.873 45.8706 49.765 45.8376 49.669C45.8076 49.573 45.7536 49.492 45.6756 49.426C45.6006 49.36 45.5001 49.309 45.3741 49.273C45.2481 49.237 45.0891 49.219 44.8971 49.219H43.8351ZM43.8351 48.202H44.6271C44.7951 48.202 44.9466 48.19 45.0816 48.166C45.2166 48.142 45.3306 48.1 45.4236 48.04C45.5196 47.98 45.5916 47.8975 45.6396 47.7925C45.6906 47.6875 45.7161 47.5555 45.7161 47.3965C45.7161 47.2405 45.6966 47.1115 45.6576 47.0095C45.6186 46.9045 45.5586 46.8205 45.4776 46.7575C45.3966 46.6945 45.2931 46.6495 45.1671 46.6225C45.0441 46.5955 44.8971 46.582 44.7261 46.582H43.8351V48.202ZM57.6074 45.4435V45.9925C57.6074 46.0705 57.5939 46.147 57.5669 46.222C57.5429 46.297 57.5084 46.3675 57.4634 46.4335L54.3854 50.83H57.5084V52H52.4504V51.415C52.4504 51.346 52.4624 51.2785 52.4864 51.2125C52.5104 51.1435 52.5434 51.0805 52.5854 51.0235L55.6724 46.6135H52.7024V45.4435H57.6074ZM67.1145 45.4435V46.6135H64.4235V48.1435H66.4845V49.2685H64.4235V50.83H67.1145V52H62.8935V45.4435H67.1145ZM74.0934 49.5745V52H72.5724V45.4435H74.7054C75.1794 45.4435 75.5829 45.493 75.9159 45.592C76.2519 45.688 76.5249 45.823 76.7349 45.997C76.9479 46.171 77.1024 46.3765 77.1984 46.6135C77.2944 46.8505 77.3424 47.1085 77.3424 47.3875C77.3424 47.6005 77.3139 47.8015 77.2569 47.9905C77.1999 48.1795 77.1144 48.355 77.0004 48.517C76.8894 48.676 76.7514 48.8185 76.5864 48.9445C76.4244 49.0705 76.2369 49.174 76.0239 49.255C76.1259 49.306 76.2204 49.369 76.3074 49.444C76.3974 49.519 76.4754 49.6105 76.5414 49.7185L77.9364 52H76.5594C76.3044 52 76.1214 51.904 76.0104 51.712L74.9214 49.8085C74.8734 49.7245 74.8164 49.6645 74.7504 49.6285C74.6874 49.5925 74.5974 49.5745 74.4804 49.5745H74.0934ZM74.0934 48.526H74.7054C74.9124 48.526 75.0879 48.5005 75.2319 48.4495C75.3789 48.3955 75.4989 48.322 75.5919 48.229C75.6849 48.136 75.7524 48.028 75.7944 47.905C75.8364 47.779 75.8574 47.644 75.8574 47.5C75.8574 47.212 75.7629 46.987 75.5739 46.825C75.3879 46.663 75.0984 46.582 74.7054 46.582H74.0934V48.526ZM89.3902 48.7195C89.3902 49.1935 89.3077 49.6345 89.1427 50.0425C88.9807 50.4505 88.7512 50.806 88.4542 51.109C88.1572 51.409 87.7987 51.6445 87.3787 51.8155C86.9617 51.9865 86.4982 52.072 85.9882 52.072C85.4782 52.072 85.0132 51.9865 84.5932 51.8155C84.1732 51.6445 83.8132 51.409 83.5132 51.109C83.2162 50.806 82.9852 50.4505 82.8202 50.0425C82.6582 49.6345 82.5772 49.1935 82.5772 48.7195C82.5772 48.2455 82.6582 47.8045 82.8202 47.3965C82.9852 46.9885 83.2162 46.6345 83.5132 46.3345C83.8132 46.0345 84.1732 45.799 84.5932 45.628C85.0132 45.457 85.4782 45.3715 85.9882 45.3715C86.4982 45.3715 86.9617 45.4585 87.3787 45.6325C87.7987 45.8035 88.1572 46.039 88.4542 46.339C88.7512 46.639 88.9807 46.993 89.1427 47.401C89.3077 47.809 89.3902 48.2485 89.3902 48.7195ZM87.8332 48.7195C87.8332 48.3955 87.7912 48.1045 87.7072 47.8465C87.6232 47.5855 87.5017 47.365 87.3427 47.185C87.1867 47.005 86.9947 46.867 86.7667 46.771C86.5387 46.675 86.2792 46.627 85.9882 46.627C85.6942 46.627 85.4317 46.675 85.2007 46.771C84.9727 46.867 84.7792 47.005 84.6202 47.185C84.4642 47.365 84.3442 47.5855 84.2602 47.8465C84.1762 48.1045 84.1342 48.3955 84.1342 48.7195C84.1342 49.0465 84.1762 49.3405 84.2602 49.6015C84.3442 49.8595 84.4642 50.0785 84.6202 50.2585C84.7792 50.4385 84.9727 50.5765 85.2007 50.6725C85.4317 50.7655 85.6942 50.812 85.9882 50.812C86.2792 50.812 86.5387 50.7655 86.7667 50.6725C86.9947 50.5765 87.1867 50.4385 87.3427 50.2585C87.5017 50.0785 87.6232 49.8595 87.7072 49.6015C87.7912 49.3405 87.8332 49.0465 87.8332 48.7195ZM94.6175 48.7015H97.0475V49.8265H94.6175V48.7015ZM106.283 46.7755C106.238 46.8475 106.19 46.9015 106.139 46.9375C106.091 46.9735 106.028 46.9915 105.95 46.9915C105.881 46.9915 105.806 46.9705 105.725 46.9285C105.647 46.8835 105.557 46.834 105.455 46.78C105.356 46.726 105.242 46.678 105.113 46.636C104.984 46.591 104.837 46.5685 104.672 46.5685C104.387 46.5685 104.174 46.63 104.033 46.753C103.895 46.873 103.826 47.0365 103.826 47.2435C103.826 47.3755 103.868 47.485 103.952 47.572C104.036 47.659 104.145 47.734 104.28 47.797C104.418 47.86 104.574 47.9185 104.748 47.9725C104.925 48.0235 105.105 48.082 105.288 48.148C105.471 48.211 105.65 48.286 105.824 48.373C106.001 48.46 106.157 48.571 106.292 48.706C106.43 48.841 106.541 49.006 106.625 49.201C106.709 49.393 106.751 49.6255 106.751 49.8985C106.751 50.2015 106.698 50.485 106.593 50.749C106.488 51.013 106.335 51.244 106.134 51.442C105.936 51.637 105.69 51.7915 105.396 51.9055C105.105 52.0165 104.774 52.072 104.402 52.072C104.198 52.072 103.989 52.051 103.776 52.009C103.566 51.967 103.362 51.9085 103.164 51.8335C102.966 51.7555 102.78 51.664 102.606 51.559C102.432 51.454 102.281 51.337 102.152 51.208L102.602 50.497C102.635 50.443 102.681 50.3995 102.741 50.3665C102.801 50.3335 102.866 50.317 102.935 50.317C103.025 50.317 103.115 50.3455 103.205 50.4025C103.298 50.4595 103.401 50.5225 103.515 50.5915C103.632 50.6605 103.766 50.7235 103.916 50.7805C104.066 50.8375 104.243 50.866 104.447 50.866C104.723 50.866 104.937 50.806 105.09 50.686C105.243 50.563 105.32 50.3695 105.32 50.1055C105.32 49.9525 105.278 49.828 105.194 49.732C105.11 49.636 104.999 49.5565 104.861 49.4935C104.726 49.4305 104.571 49.375 104.397 49.327C104.223 49.279 104.045 49.2265 103.862 49.1695C103.679 49.1095 103.5 49.0375 103.326 48.9535C103.152 48.8665 102.996 48.754 102.858 48.616C102.723 48.475 102.614 48.301 102.53 48.094C102.446 47.884 102.404 47.626 102.404 47.32C102.404 47.074 102.453 46.834 102.552 46.6C102.651 46.366 102.797 46.1575 102.989 45.9745C103.181 45.7915 103.416 45.646 103.695 45.538C103.974 45.427 104.294 45.3715 104.654 45.3715C104.855 45.3715 105.05 45.388 105.239 45.421C105.431 45.451 105.612 45.4975 105.783 45.5605C105.954 45.6205 106.113 45.694 106.26 45.781C106.41 45.865 106.544 45.961 106.661 46.069L106.283 46.7755ZM114.823 50.7985C115.027 50.7985 115.209 50.7655 115.368 50.6995C115.53 50.6305 115.666 50.533 115.777 50.407C115.888 50.281 115.972 50.128 116.029 49.948C116.089 49.765 116.119 49.558 116.119 49.327V45.4435H117.64V49.327C117.64 49.729 117.574 50.098 117.442 50.434C117.313 50.77 117.127 51.0595 116.884 51.3025C116.641 51.5455 116.346 51.7345 115.998 51.8695C115.65 52.0045 115.258 52.072 114.823 52.072C114.385 52.072 113.992 52.0045 113.644 51.8695C113.296 51.7345 113.001 51.5455 112.758 51.3025C112.515 51.0595 112.329 50.77 112.2 50.434C112.071 50.098 112.006 49.729 112.006 49.327V45.4435H113.527V49.3225C113.527 49.5535 113.556 49.7605 113.613 49.9435C113.673 50.1235 113.758 50.278 113.869 50.407C113.98 50.533 114.115 50.6305 114.274 50.6995C114.436 50.7655 114.619 50.7985 114.823 50.7985ZM124.738 49.8085V52H123.217V45.4435H125.53C125.992 45.4435 126.388 45.499 126.718 45.61C127.051 45.718 127.324 45.868 127.537 46.06C127.753 46.252 127.912 46.4785 128.014 46.7395C128.116 47.0005 128.167 47.2825 128.167 47.5855C128.167 47.9125 128.114 48.2125 128.009 48.4855C127.904 48.7585 127.744 48.9925 127.528 49.1875C127.312 49.3825 127.037 49.5355 126.704 49.6465C126.374 49.7545 125.983 49.8085 125.53 49.8085H124.738ZM124.738 48.661H125.53C125.926 48.661 126.211 48.5665 126.385 48.3775C126.559 48.1885 126.646 47.9245 126.646 47.5855C126.646 47.4355 126.623 47.299 126.578 47.176C126.533 47.053 126.464 46.948 126.371 46.861C126.281 46.771 126.166 46.702 126.025 46.654C125.887 46.606 125.722 46.582 125.53 46.582H124.738V48.661ZM135.067 49.8085V52H133.546V45.4435H135.859C136.321 45.4435 136.717 45.499 137.047 45.61C137.38 45.718 137.653 45.868 137.866 46.06C138.082 46.252 138.241 46.4785 138.343 46.7395C138.445 47.0005 138.496 47.2825 138.496 47.5855C138.496 47.9125 138.443 48.2125 138.338 48.4855C138.233 48.7585 138.073 48.9925 137.857 49.1875C137.641 49.3825 137.366 49.5355 137.033 49.6465C136.703 49.7545 136.312 49.8085 135.859 49.8085H135.067ZM135.067 48.661H135.859C136.255 48.661 136.54 48.5665 136.714 48.3775C136.888 48.1885 136.975 47.9245 136.975 47.5855C136.975 47.4355 136.952 47.299 136.907 47.176C136.862 47.053 136.793 46.948 136.7 46.861C136.61 46.771 136.495 46.702 136.354 46.654C136.216 46.606 136.051 46.582 135.859 46.582H135.067V48.661ZM150.346 48.7195C150.346 49.1935 150.264 49.6345 150.099 50.0425C149.937 50.4505 149.707 50.806 149.41 51.109C149.113 51.409 148.755 51.6445 148.335 51.8155C147.918 51.9865 147.454 52.072 146.944 52.072C146.434 52.072 145.969 51.9865 145.549 51.8155C145.129 51.6445 144.769 51.409 144.469 51.109C144.172 50.806 143.941 50.4505 143.776 50.0425C143.614 49.6345 143.533 49.1935 143.533 48.7195C143.533 48.2455 143.614 47.8045 143.776 47.3965C143.941 46.9885 144.172 46.6345 144.469 46.3345C144.769 46.0345 145.129 45.799 145.549 45.628C145.969 45.457 146.434 45.3715 146.944 45.3715C147.454 45.3715 147.918 45.4585 148.335 45.6325C148.755 45.8035 149.113 46.039 149.41 46.339C149.707 46.639 149.937 46.993 150.099 47.401C150.264 47.809 150.346 48.2485 150.346 48.7195ZM148.789 48.7195C148.789 48.3955 148.747 48.1045 148.663 47.8465C148.579 47.5855 148.458 47.365 148.299 47.185C148.143 47.005 147.951 46.867 147.723 46.771C147.495 46.675 147.235 46.627 146.944 46.627C146.65 46.627 146.388 46.675 146.157 46.771C145.929 46.867 145.735 47.005 145.576 47.185C145.42 47.365 145.3 47.5855 145.216 47.8465C145.132 48.1045 145.09 48.3955 145.09 48.7195C145.09 49.0465 145.132 49.3405 145.216 49.6015C145.3 49.8595 145.42 50.0785 145.576 50.2585C145.735 50.4385 145.929 50.5765 146.157 50.6725C146.388 50.7655 146.65 50.812 146.944 50.812C147.235 50.812 147.495 50.7655 147.723 50.6725C147.951 50.5765 148.143 50.4385 148.299 50.2585C148.458 50.0785 148.579 49.8595 148.663 49.6015C148.747 49.3405 148.789 49.0465 148.789 48.7195ZM157.184 49.5745V52H155.663V45.4435H157.796C158.27 45.4435 158.674 45.493 159.007 45.592C159.343 45.688 159.616 45.823 159.826 45.997C160.039 46.171 160.193 46.3765 160.289 46.6135C160.385 46.8505 160.433 47.1085 160.433 47.3875C160.433 47.6005 160.405 47.8015 160.348 47.9905C160.291 48.1795 160.205 48.355 160.091 48.517C159.98 48.676 159.842 48.8185 159.677 48.9445C159.515 49.0705 159.328 49.174 159.115 49.255C159.217 49.306 159.311 49.369 159.398 49.444C159.488 49.519 159.566 49.6105 159.632 49.7185L161.027 52H159.65C159.395 52 159.212 51.904 159.101 51.712L158.012 49.8085C157.964 49.7245 157.907 49.6645 157.841 49.6285C157.778 49.5925 157.688 49.5745 157.571 49.5745H157.184ZM157.184 48.526H157.796C158.003 48.526 158.179 48.5005 158.323 48.4495C158.47 48.3955 158.59 48.322 158.683 48.229C158.776 48.136 158.843 48.028 158.885 47.905C158.927 47.779 158.948 47.644 158.948 47.5C158.948 47.212 158.854 46.987 158.665 46.825C158.479 46.663 158.189 46.582 157.796 46.582H157.184V48.526ZM170.727 45.4435V46.6495H168.882V52H167.361V46.6495H165.516V45.4435H170.727Z" fill="#525863"/>
<defs>
<radialGradient id="paint0_radial_425_653" cx="0" cy="0" r="1" gradientUnits="userSpaceOnUse" gradientTransform="translate(95.5 33) rotate(90) scale(33 95.5)">
<stop stop-color="#F0F4F9"/>
<stop offset="1" stop-color="#D7DBE1"/>
</radialGradient>
</defs>
</svg>
