<svg width="31" height="31" viewBox="0 0 31 31" fill="none" xmlns="http://www.w3.org/2000/svg">
<g clip-path="url(#clip0_39_458)">
<path d="M3.80395 30.1396C3.29048 30.1396 2.80763 29.9395 2.44456 29.5764L1.38835 28.5202C1.02528 28.1571 0.825195 27.6743 0.825195 27.1608C0.825195 26.647 1.02494 26.1642 1.38835 25.8014L10.3229 16.8669C9.6376 14.3114 10.9752 11.5651 13.4368 10.5456C14.9894 9.90249 16.783 10.0393 18.2349 10.9117C18.3251 10.9655 18.3847 11.0581 18.3976 11.1618C18.4105 11.266 18.3748 11.3698 18.3006 11.4439L13.9611 15.7831C13.6249 16.1196 13.6249 16.6668 13.9611 17.003C14.2871 17.3286 14.855 17.3286 15.181 17.003L19.5212 12.6625C19.5954 12.5886 19.7002 12.5529 19.8029 12.5651C19.9071 12.5777 19.9989 12.6376 20.053 12.7274C20.2051 12.9796 20.3246 13.212 20.4181 13.4373C21.5455 16.1598 20.2483 19.2917 17.5262 20.4193C16.4414 20.8688 15.232 20.9461 14.0982 20.6408L5.16266 29.5761C4.80027 29.9395 4.31742 30.1396 3.80395 30.1396ZM15.4746 10.8182C14.8747 10.8182 14.2728 10.9362 13.6974 11.1744C11.4931 12.0874 10.3219 14.5867 11.0307 16.8645C11.0681 16.9849 11.0358 17.1166 10.9463 17.2061L1.86949 26.2826C1.63505 26.517 1.50574 26.8287 1.50574 27.1608C1.50574 27.4926 1.63471 27.8046 1.86949 28.0391L2.9257 29.0953C3.39494 29.5645 4.21296 29.5645 4.6822 29.0953L13.7597 20.0178C13.8488 19.9283 13.9802 19.896 14.1013 19.9334C15.1405 20.257 16.2641 20.206 17.2662 19.7908C19.6416 18.8068 20.7741 16.0737 19.79 13.6982C19.7577 13.6207 19.7226 13.5431 19.6832 13.4635L15.6625 17.4845C15.3712 17.7757 14.9836 17.9363 14.5712 17.9363C14.1588 17.9363 13.7712 17.7757 13.48 17.4845C12.8784 16.8825 12.8784 15.9036 13.48 15.302L17.4969 11.2854C16.8548 10.975 16.1661 10.8182 15.4746 10.8182Z" fill="#C0C0C0" stroke="#C0C0C0" stroke-width="0.7"/>
<path d="M17.1741 30.7949H13.7911C12.5072 30.7942 11.4633 29.7499 11.4633 28.4668C11.4633 27.8488 11.124 27.5041 10.8399 27.3241C10.7511 27.268 10.6932 27.1737 10.6833 27.0693C10.6735 26.9645 10.7123 26.8614 10.7888 26.7892L14.2661 23.5124C14.3396 23.4433 14.4386 23.4086 14.5403 23.4219C15.8936 23.5849 17.2778 23.394 18.5426 22.8703C20.5125 22.0547 22.0485 20.517 22.8665 18.5413C23.6849 16.5654 23.6862 14.3927 22.8702 12.4229C21.1832 8.34947 16.4969 6.40821 12.4225 8.09494C9.12932 9.4591 7.12205 12.8846 7.54126 16.4255C7.55351 16.529 7.51779 16.6321 7.44395 16.7059L4.08715 20.0644C4.01739 20.1342 3.92348 20.1723 3.82208 20.1631C3.7234 20.1559 3.63288 20.1066 3.57402 20.028C3.31269 19.6789 2.95064 19.5016 2.49807 19.5012C2.49773 19.5012 2.49705 19.5012 2.49671 19.5012C1.87571 19.5012 1.2918 19.2593 0.85217 18.8197C0.412197 18.38 0.169922 17.7955 0.169922 17.1734V13.7915C0.169922 13.1698 0.411856 12.5855 0.851489 12.1456C1.29146 11.7059 1.87605 11.4637 2.49773 11.4637C3.31813 11.4637 3.64888 10.877 3.753 10.6249C3.8578 10.3721 4.03849 9.72281 3.45866 9.14299C3.01903 8.70335 2.77676 8.11876 2.7771 7.49674C2.7771 6.87472 3.01937 6.29013 3.459 5.8505L5.85011 3.4594C6.29008 3.01977 6.87433 2.77783 7.49465 2.77783C7.49533 2.77783 7.49567 2.77783 7.49601 2.77783C8.11769 2.77783 8.70228 3.02011 9.14191 3.45974C9.72139 4.03957 10.3713 3.85854 10.6235 3.75408C10.8759 3.64961 11.4626 3.31853 11.4626 2.49847C11.4643 1.21496 12.5082 0.170659 13.7907 0.170319H17.1734C17.1737 0.170319 17.1741 0.170319 17.1741 0.170319C17.7954 0.170319 18.3797 0.412253 18.8193 0.852226C19.2586 1.29152 19.5009 1.87577 19.5012 2.49745C19.5012 3.31887 20.0882 3.64961 20.3403 3.75374C20.5373 3.83574 21.2247 4.05624 21.8219 3.4594C22.7287 2.55257 24.2055 2.55223 25.1133 3.45906L27.5051 5.85118C27.9447 6.29082 28.187 6.8754 28.187 7.49708C28.187 8.1191 27.9447 8.70369 27.5051 9.14333C26.9083 9.74017 27.1288 10.4279 27.2104 10.6245C27.3156 10.8774 27.647 11.4643 28.4664 11.4643C29.7499 11.4647 30.7942 12.5086 30.7945 13.7915L30.7942 17.1738C30.7935 18.4563 29.7495 19.5002 28.4671 19.5019H28.4667C27.6463 19.5019 27.3149 20.0889 27.2108 20.341C27.1288 20.5384 26.9083 21.2261 27.5051 21.8226C28.4119 22.7298 28.4123 24.2062 27.5061 25.1141L25.1137 27.5062C24.2058 28.412 22.7297 28.412 21.8225 27.5069C21.2427 26.926 20.5931 27.107 20.3406 27.2115C20.0882 27.3163 19.5012 27.6477 19.5012 28.4675C19.5012 29.0891 19.2589 29.6737 18.8193 30.1134C18.6005 30.3321 18.3463 30.5023 18.0642 30.6187C17.7828 30.735 17.4834 30.7946 17.1741 30.7949ZM11.5419 27.0145C11.842 27.3037 12.1438 27.7682 12.1438 28.4671C12.1438 29.375 12.8825 30.114 13.7911 30.1147H17.1734C17.3929 30.1144 17.6048 30.0725 17.8039 29.9902C18.0033 29.9078 18.1826 29.7874 18.3378 29.6322C18.6488 29.3212 18.8203 28.9074 18.8203 28.4675C18.8203 27.2027 19.7843 26.7048 20.0797 26.5827C20.3754 26.4602 21.4088 26.1305 22.3033 27.0254C22.9448 27.6661 23.9897 27.6668 24.6325 27.0247L27.0243 24.6329C27.6657 23.9908 27.6654 22.9458 27.0236 22.3037C26.1277 21.4078 26.4591 20.3754 26.5819 20.0804C26.7038 19.7854 27.2009 18.8214 28.4657 18.8214C28.466 18.8214 28.466 18.8214 28.4664 18.8214C29.3739 18.8204 30.1126 18.0809 30.1133 17.1734L30.114 13.7911C30.1136 12.8833 29.3749 12.1445 28.4674 12.1442C27.2023 12.1442 26.7044 11.1802 26.5819 10.8848C26.4594 10.5902 26.1284 9.5571 27.024 8.6615C27.335 8.35049 27.5065 7.93672 27.5065 7.4964C27.5065 7.05643 27.335 6.643 27.024 6.33165L24.6322 3.93987C23.9897 3.29811 22.9444 3.29879 22.3027 3.94055C21.4071 4.83615 20.3743 4.5054 20.0797 4.38256C19.785 4.26074 18.8206 3.76395 18.8206 2.49745C18.8203 2.05747 18.6488 1.64404 18.3381 1.33303C18.0271 1.02236 17.6134 0.850865 17.1741 0.850865C17.1737 0.850865 17.1737 0.850865 17.1734 0.850865H13.7911C12.8836 0.851206 12.1448 1.59028 12.1441 2.49847C12.1441 3.76361 11.1801 4.26074 10.8848 4.3829C10.5894 4.5054 9.55602 4.83547 8.66178 3.94123C8.35043 3.62988 7.937 3.45872 7.49703 3.45872C7.49669 3.45872 7.49635 3.45872 7.49601 3.45872C7.05671 3.45872 6.64362 3.62988 6.33227 3.94123L3.94117 6.33233C3.62982 6.64334 3.45866 7.05711 3.45866 7.49743C3.45866 7.9374 3.62982 8.35117 3.94083 8.66218C4.83541 9.55676 4.50534 10.5902 4.38285 10.8852C4.26103 11.1802 3.76457 12.1445 2.49909 12.1445C2.49875 12.1445 2.49875 12.1445 2.49841 12.1445C2.05878 12.1445 1.64501 12.316 1.33366 12.627C1.02163 12.9381 0.850469 13.3515 0.850469 13.7915V17.1734C0.850469 17.6138 1.02163 18.0275 1.33264 18.3385C1.64365 18.6495 2.05674 18.8207 2.49603 18.8207C2.49637 18.8207 2.49671 18.8207 2.49705 18.8207C3.12315 18.821 3.56109 19.0592 3.85712 19.3308L6.84643 16.3401C6.47247 12.5573 8.63899 8.92521 12.1612 7.46612C16.5813 5.63443 21.6674 7.74208 23.498 12.1622C24.3838 14.3002 24.3824 16.6583 23.4943 18.8016C22.6065 20.9454 20.9402 22.6134 18.8023 23.4991C17.4793 24.047 16.0362 24.2593 14.6176 24.1157L11.5419 27.0145Z" fill="#C0C0C0" stroke="#C0C0C0" stroke-width="0.7"/>
</g>
<defs>
<clipPath id="clip0_39_458">
<rect width="31" height="31" fill="white"/>
</clipPath>
</defs>
</svg>
