<svg width="31" height="31" viewBox="0 0 31 31" fill="none" xmlns="http://www.w3.org/2000/svg">
<g clip-path="url(#clip0_39_451)">
<path d="M15.4822 30.7949C7.03902 30.7949 0.169922 23.9258 0.169922 15.4826C0.169922 7.03942 7.03902 0.170319 15.4822 0.170319C23.9254 0.170319 30.7945 7.03942 30.7945 15.4826C30.7945 23.9258 23.9254 30.7949 15.4822 30.7949ZM15.4822 1.53141C7.78966 1.53141 1.53102 7.79006 1.53102 15.4826C1.53102 23.1752 7.78966 29.4338 15.4822 29.4338C23.1748 29.4338 29.4334 23.1752 29.4334 15.4826C29.4334 7.79006 23.1748 1.53141 15.4822 1.53141Z" fill="#C0C0C0"/>
<path d="M10.718 13.9684C11.6576 13.9684 12.4193 13.2067 12.4193 12.267C12.4193 11.3274 11.6576 10.5657 10.718 10.5657C9.77833 10.5657 9.0166 11.3274 9.0166 12.267C9.0166 13.2067 9.77833 13.9684 10.718 13.9684Z" fill="#C0C0C0"/>
<path d="M20.2463 13.9684C21.1859 13.9684 21.9477 13.2067 21.9477 12.267C21.9477 11.3274 21.1859 10.5657 20.2463 10.5657C19.3067 10.5657 18.5449 11.3274 18.5449 12.267C18.5449 13.2067 19.3067 13.9684 20.2463 13.9684Z" fill="#C0C0C0"/>
<path d="M15.4818 23.7666C12.7753 23.7666 10.2631 22.416 8.7611 20.1539C8.55319 19.8408 8.6386 19.4182 8.95165 19.2106C9.2647 19.0021 9.68732 19.0881 9.89489 19.4012C11.144 21.2826 13.2326 22.4058 15.4818 22.4058C17.7311 22.4058 19.8196 21.2826 21.0688 19.4012C21.2764 19.0878 21.6983 19.0021 22.012 19.2106C22.3251 19.4182 22.4105 19.8412 22.2026 20.1539C20.7006 22.416 18.188 23.7666 15.4818 23.7666Z" fill="#C0C0C0"/>
</g>
<defs>
<clipPath id="clip0_39_451">
<rect width="31" height="31" fill="white"/>
</clipPath>
</defs>
</svg>
